<?xml version="1.0" encoding="utf-8"?>
<!-- Generator: Adobe Illustrator 23.1.0, SVG Export Plug-In . SVG Version: 6.00 Build 0)  -->
<!DOCTYPE svg PUBLIC "-//W3C//DTD SVG 1.1//EN" "http://www.w3.org/Graphics/SVG/1.1/DTD/svg11.dtd" [
	<!ENTITY ns_extend "http://ns.adobe.com/Extensibility/1.0/">
	<!ENTITY ns_ai "http://ns.adobe.com/AdobeIllustrator/10.0/">
	<!ENTITY ns_graphs "http://ns.adobe.com/Graphs/1.0/">
	<!ENTITY ns_vars "http://ns.adobe.com/Variables/1.0/">
	<!ENTITY ns_imrep "http://ns.adobe.com/ImageReplacement/1.0/">
	<!ENTITY ns_sfw "http://ns.adobe.com/SaveForWeb/1.0/">
	<!ENTITY ns_custom "http://ns.adobe.com/GenericCustomNamespace/1.0/">
	<!ENTITY ns_adobe_xpath "http://ns.adobe.com/XPath/1.0/">
]>
<svg version="1.1" id="Layer_1" xmlns:x="&ns_extend;" xmlns:i="&ns_ai;" xmlns:graph="&ns_graphs;"
	 xmlns="http://www.w3.org/2000/svg" xmlns:xlink="http://www.w3.org/1999/xlink" x="0px" y="0px" viewBox="0 0 32 32"
	 style="enable-background:new 0 0 32 32;" xml:space="preserve">
<style type="text/css">
	.st0{fill:#D6E2E8;}
</style>
<metadata>
	<sfw  xmlns="&ns_sfw;">
		<slices></slices>
		<sliceSourceBounds  bottomLeftOrigin="true" height="27.4" width="23.4" x="4.3" y="2.3"></sliceSourceBounds>
	</sfw>
</metadata>
<g>
	<path class="st0" d="M27.7,12.9c0,2.1,0,4.3,0,6.4c0,0.4-0.1,0.9-0.3,1.3c-2.3,4.6-5.9,7.6-10.9,9c-0.4,0.1-0.8,0.1-1.2,0
		c-4.9-1.3-8.4-4.3-10.7-8.9c-0.2-0.4-0.3-0.9-0.3-1.4c0-4.2,0-8.5,0-12.7c0-1.5,0.4-2,1.9-2.1c3.1-0.2,6.2-0.8,9.1-2.1
		c0.4-0.2,1-0.2,1.4,0c3,1.3,6.1,1.9,9.3,2.1c1.1,0,1.7,0.6,1.7,1.8C27.7,8.5,27.7,10.7,27.7,12.9z M26.7,12.9c0-2.1,0-4.3,0-6.4
		c0-0.8-0.2-1-1-1c-3.2-0.1-6.2-0.8-9.1-2c-0.3-0.1-0.8-0.1-1.1,0c-2.9,1.2-5.9,1.9-9.1,2c-0.8,0-1,0.2-1,1c0,4.3,0,8.6,0,12.9
		c0,0.3,0.1,0.7,0.2,0.9c2.1,4.2,5.4,7,9.9,8.3c0.3,0.1,0.7,0.1,1,0c4.5-1.3,7.8-4.1,10-8.2c0.2-0.3,0.3-0.7,0.3-1.1
		C26.7,17.2,26.7,15,26.7,12.9z"/>
</g>
<g>
	<path class="st0" d="M13.6,18.2c-1.1,0-2-0.1-2.9-0.3c-0.3-0.1-0.4-0.1-0.4-0.4s0-0.6,0-1c0-0.2,0.1-0.3,0.3-0.4s0.5-0.2,0.8-0.3
		s0.5-0.2,0.7-0.3c0.3-0.2,0.3-0.8,0-1.1c-0.2-0.1-0.3-0.3-0.4-0.6c0-0.1-0.1-0.1-0.1-0.2c-0.2-0.2-0.3-0.5-0.2-0.8
		c0-0.1,0.1-0.2,0.1-0.3c0-0.3,0-0.5,0.1-0.8c0.2-1,1-1.5,2-1.3c0.9,0.2,1.3,0.7,1.5,1.6c0,0.1,0,0.2,0,0.4s0,0.3,0.1,0.5
		s0,0.6-0.2,0.8c-0.1,0-0.1,0.1-0.1,0.2c-0.1,0.2-0.2,0.4-0.3,0.5c-0.3,0.2-0.4,0.8,0,1.1c0.2,0.1,0.5,0.2,0.7,0.3
		c0.1,0,0.2,0.1,0.2,0.2c0,0.6,0,1.2,0,1.8c0,0.1,0,0.2-0.2,0.2C14.7,18.1,14.1,18.2,13.6,18.2z"/>
	<path class="st0" d="M15.7,19.6c-0.1,0-0.2,0-0.2,0c-2,0-4.1,0-6.1,0c-0.3,0-0.6-0.1-0.8-0.4s-0.3-0.6-0.3-0.9c0-2.7,0-5.4,0-8.1
		c0-0.4,0.1-0.7,0.4-0.9C8.8,9,9.1,8.9,9.4,8.9c4,0,8,0,12,0c0.5,0,0.8,0.2,1.2,0.5c0.2,0.2,0.2,0.3,0.2,0.5c0,1.9,0,3.7,0,5.6
		c0,0,0,0,0,0.1c-0.2-0.2-0.5-0.3-0.7-0.4c0,0-0.1-0.1-0.1-0.2c0-1.5,0-3,0-4.4c0-0.6-0.3-0.9-0.9-0.9c-3.7,0-7.5,0-11.2,0
		C9.3,9.7,9,10,9,10.6c0,2.5,0,4.9,0,7.4c0,0.6,0.4,0.9,0.9,0.9c1.8,0,3.6,0,5.5,0c0.2,0,0.3,0,0.3,0.2
		C15.6,19.2,15.7,19.4,15.7,19.6z"/>
	<path class="st0" d="M18.2,12.2c-0.6,0-1.3,0-1.9,0c-0.1,0-0.1,0-0.2,0c-0.2,0-0.2-0.1-0.3-0.3c0-0.2,0.1-0.3,0.2-0.3
		c0.1,0,0.1,0,0.2,0c1.3,0,2.5,0,3.8,0h0.1c0.2,0,0.3,0.2,0.3,0.3s-0.1,0.3-0.3,0.3c-0.2,0-0.3,0-0.5,0
		C19.3,12.2,18.8,12.2,18.2,12.2z"/>
	<path class="st0" d="M18.2,13.7c-0.6,0-1.3,0-1.9,0c-0.1,0-0.1,0-0.2,0c-0.2,0-0.2-0.2-0.2-0.3c0-0.2,0.1-0.2,0.2-0.3
		c0,0,0.1,0,0.2,0c1.3,0,2.5,0,3.8,0h0.1c0.2,0,0.3,0.2,0.3,0.3c0,0.2-0.1,0.3-0.2,0.3s-0.1,0-0.2,0C19.5,13.7,18.9,13.7,18.2,13.7z
		"/>
	<path class="st0" d="M16.8,15.3c-0.2,0-0.3,0-0.5,0S16,15.2,16,15s0.1-0.3,0.3-0.3c0.3,0,0.7,0,1.1,0c0.2,0,0.3,0.1,0.3,0.3
		s-0.1,0.3-0.3,0.3C17.1,15.3,16.9,15.3,16.8,15.3z"/>
</g>
<g>
	<path class="st0" d="M16.8,18.2c0-1.5,1.3-2.7,2.9-2.7s2.9,1.2,2.9,2.7s-1.3,2.7-2.9,2.7C18.1,20.9,16.8,19.7,16.8,18.2z M22,18.2
		c0-1.2-1-2.2-2.3-2.2s-2.3,1-2.3,2.2s1.1,2.2,2.3,2.2C21,20.4,22,19.4,22,18.2z"/>
	<path class="st0" d="M19.3,18.9c0.2-0.3,0.4-0.5,0.6-0.7c0.3-0.4,0.6-0.7,0.9-1.1c0.1-0.1,0.2-0.2,0.4-0.1c0.2,0.1,0.2,0.3,0.1,0.4
		c-0.2,0.2-0.3,0.4-0.5,0.6c-0.4,0.5-0.7,0.9-1.1,1.4c-0.2,0.2-0.3,0.2-0.5,0c-0.4-0.3-0.8-0.7-1.1-1c-0.1-0.1-0.2-0.2-0.1-0.3
		c0.1-0.1,0.2-0.2,0.3-0.1c0.1,0,0.1,0.1,0.2,0.1C18.7,18.3,19,18.6,19.3,18.9z"/>
</g>
</svg>
