<?xml version="1.0" encoding="utf-8"?>
<!-- Generator: Adobe Illustrator 23.1.0, SVG Export Plug-In . SVG Version: 6.00 Build 0)  -->
<!DOCTYPE svg PUBLIC "-//W3C//DTD SVG 1.1//EN" "http://www.w3.org/Graphics/SVG/1.1/DTD/svg11.dtd" [
	<!ENTITY ns_extend "http://ns.adobe.com/Extensibility/1.0/">
	<!ENTITY ns_ai "http://ns.adobe.com/AdobeIllustrator/10.0/">
	<!ENTITY ns_graphs "http://ns.adobe.com/Graphs/1.0/">
	<!ENTITY ns_vars "http://ns.adobe.com/Variables/1.0/">
	<!ENTITY ns_imrep "http://ns.adobe.com/ImageReplacement/1.0/">
	<!ENTITY ns_sfw "http://ns.adobe.com/SaveForWeb/1.0/">
	<!ENTITY ns_custom "http://ns.adobe.com/GenericCustomNamespace/1.0/">
	<!ENTITY ns_adobe_xpath "http://ns.adobe.com/XPath/1.0/">
]>
<svg version="1.1" id="Layer_1" xmlns:x="&ns_extend;" xmlns:i="&ns_ai;" xmlns:graph="&ns_graphs;"
	 xmlns="http://www.w3.org/2000/svg" xmlns:xlink="http://www.w3.org/1999/xlink" x="0px" y="0px" viewBox="0 0 32 32"
	 style="enable-background:new 0 0 32 32;" xml:space="preserve">
<style type="text/css">
	.st0{fill:#D6E2E8;}
</style>
<metadata>
	<sfw  xmlns="&ns_sfw;">
		<slices></slices>
		<sliceSourceBounds  bottomLeftOrigin="true" height="26" width="28.6" x="1.7" y="3"></sliceSourceBounds>
	</sfw>
</metadata>
<g>
	<path class="st0" d="M26.2,23.9c0.8,0.8,1.5,1.6,2.3,2.4c0.1,0.1,0.2,0.2,0.4,0.4c0.2,0.2,0.2,0.5,0,0.7c-0.5,0.5-0.9,1-1.4,1.5
		c-0.2,0.2-0.5,0.2-0.7-0.1c-0.8-0.8-1.6-1.7-2.4-2.5c-0.1-0.1-0.1-0.2-0.2-0.3c-0.2,0.4-0.4,0.7-0.6,1c-0.1,0.3-0.2,0.6-0.6,0.6
		s-0.4-0.4-0.6-0.6c-0.4-0.9-0.8-1.8-1.2-2.8c-0.1-0.2-0.2-0.3-0.5-0.3c-6.1,0-12.2,0-18.3,0c-0.6,0-0.7-0.1-0.7-0.8
		c0-6.5,0-12.9,0-19.4C1.7,3.1,1.8,3,2.4,3c9.1,0,18.2,0,27.3,0c0.5,0,0.6,0.2,0.6,0.7c0,6.5,0,13.1,0,19.6c0,0.4-0.2,0.6-0.6,0.6
		c-1,0-2.1,0-3.2,0C26.5,23.8,26.4,23.8,26.2,23.9C26.3,23.9,26.2,23.9,26.2,23.9z M3.8,5.2c0,5.5,0,11,0,16.4c5.4,0,10.8,0,16.2,0
		c-0.2-0.6-0.4-1.1-0.7-1.6c-0.1-0.3-0.2-0.6,0.1-0.8c0.2-0.2,0.5-0.2,0.7-0.1c1.2,0.6,2.4,1.2,3.6,1.8c0.9,0.5,1.8,0.8,2.8,0.7
		c0.5-0.1,1,0,1.5,0c0.1,0,0.2,0,0.3,0c0-5.5,0-11,0-16.4C20.1,5.2,12,5.2,3.8,5.2z M20.7,23.3c-0.1-0.2-0.2-0.5-0.3-0.7
		c-0.1-0.3-0.3-0.4-0.6-0.4c-5.3,0-10.6,0-15.9,0c-0.5,0-0.7-0.2-0.7-0.7c0-5.4,0-10.7,0-16.1c0-0.7,0.1-0.8,0.7-0.8
		c8,0,16.1,0,24.1,0c0.5,0,0.7,0.2,0.7,0.7c0,5.4,0,10.8,0,16.3c0,0.5-0.2,0.7-0.6,0.7s-0.7,0-1.2,0c0.4,0.4,1.1,0.3,1.1,1.1
		c0.6,0,1.2,0,1.7,0c0-6.7,0-13.2,0-19.9c-9.2,0-18.4,0-27.5,0c0,6.6,0,13.2,0,19.9C8.4,23.3,14.6,23.3,20.7,23.3z"/>
	<path class="st0" d="M23.4,8.5c1,0,1.9,0,2.9,0c0.4,0,0.6,0.2,0.6,0.5s-0.2,0.5-0.6,0.5c-2,0-3.9,0-5.9,0c-0.4,0-0.6-0.2-0.6-0.5
		s0.2-0.5,0.6-0.5C21.4,8.4,22.4,8.5,23.4,8.5z"/>
	<path class="st0" d="M23.3,6.8c1,0,1.9,0,2.9,0c0.4,0,0.6,0.2,0.6,0.5s-0.2,0.5-0.6,0.5c-1.9,0-3.9,0-5.8,0c-0.4,0-0.6-0.2-0.6-0.5
		s0.2-0.5,0.6-0.5C21.4,6.8,22.3,6.8,23.3,6.8z"/>
	<path class="st0" d="M23.3,11c-1,0-1.9,0-2.9,0c-0.4,0-0.6-0.2-0.7-0.5c0-0.3,0.2-0.5,0.6-0.5c1.9,0,3.9,0,5.8,0
		c0.4,0,0.6,0.2,0.6,0.5S26.5,11,26.1,11C25.3,11,24.3,11,23.3,11z"/>
	<polygon class="st0" points="8.6,20 7.7,19.5 6.9,20 7,19 6.3,18.3 7.3,18.2 7.7,17.2 8.1,18.1 9.1,18.3 8.4,19 	"/>
	<polygon class="st0" points="12,20 11.2,19.6 10.4,20.1 10.5,19.1 9.8,18.4 10.7,18.2 11.1,17.3 11.6,18.2 12.5,18.3 11.9,19 	"/>
	<polygon class="st0" points="15.8,19.9 14.8,19.5 13.9,20 14,19 13.2,18.3 14.3,18.2 14.7,17.3 15.3,18.1 16.3,18.3 15.6,19 	"/>
</g>
<g>
	<path class="st0" d="M7.3,9.9C6.7,9.7,6.1,9.4,5.5,9.2C5.5,9,5.6,9,5.6,9c1.6-0.6,3.2-1.1,4.8-1.7c0.1,0,0.2-0.1,0.4,0
		C12.4,7.9,14,8.5,15.7,9c0,0,0.1,0,0.1,0.1c-0.8,0.3-1.6,0.7-2.4,1c-0.1,0-0.1,0-0.2,0c-0.7,0.3-1.5,0.6-2.2,0.9
		c-0.2,0.1-0.4,0.1-0.7,0c-0.8-0.3-1.6-0.7-2.4-0.9L7.8,10c0.8-0.3,1.6-0.6,2.4-1c0,0,0.1,0,0.1,0.1c0.1,0.2,0.3,0.2,0.5,0.1
		c0.1,0,0.2-0.2,0.1-0.4c-0.1-0.1-0.2-0.3-0.4-0.3s-0.4,0.1-0.4,0.3C10,8.9,9.9,8.9,9.7,9C9,9.3,8.1,9.6,7.3,9.9z"/>
	<path class="st0" d="M10.1,9.1c-0.8,0.3-1.6,0.6-2.4,1c-0.2,0-0.2,0.1-0.2,0.3c0,0.8,0,1.6,0,2.3c0,0,0.1,0.2-0.1,0.2
		s-0.2-0.1-0.2-0.2c0-0.9,0-1.7,0-2.6c0-0.1,0-0.2,0-0.2C8,9.6,8.9,9.3,9.7,9c0.1,0,0.2-0.1,0.4-0.1C10.1,9,10.1,9,10.1,9.1z"/>
	<path class="st0" d="M13.5,10.2c0,0.4,0,0.9,0,1.3c0,0.1-0.1,0.2-0.1,0.3c-1.5,1.6-3.7,1.6-5.2,0C8,11.7,7.9,11.6,8,11.5
		c0-0.4,0-0.9,0-1.3c0.1,0,0.2,0,0.3,0.1c0.7,0.3,1.5,0.6,2.2,0.9c0.1,0.1,0.3,0.1,0.4,0c0.2-0.1,0.4-0.2,0.7-0.3
		C12.2,10.7,12.8,10.3,13.5,10.2z"/>
</g>
</svg>
