<?xml version="1.0" encoding="utf-8"?>
<!-- Generator: Adobe Illustrator 23.1.0, SVG Export Plug-In . SVG Version: 6.00 Build 0)  -->
<!DOCTYPE svg PUBLIC "-//W3C//DTD SVG 1.1//EN" "http://www.w3.org/Graphics/SVG/1.1/DTD/svg11.dtd" [
	<!ENTITY ns_extend "http://ns.adobe.com/Extensibility/1.0/">
	<!ENTITY ns_ai "http://ns.adobe.com/AdobeIllustrator/10.0/">
	<!ENTITY ns_graphs "http://ns.adobe.com/Graphs/1.0/">
	<!ENTITY ns_vars "http://ns.adobe.com/Variables/1.0/">
	<!ENTITY ns_imrep "http://ns.adobe.com/ImageReplacement/1.0/">
	<!ENTITY ns_sfw "http://ns.adobe.com/SaveForWeb/1.0/">
	<!ENTITY ns_custom "http://ns.adobe.com/GenericCustomNamespace/1.0/">
	<!ENTITY ns_adobe_xpath "http://ns.adobe.com/XPath/1.0/">
]>
<svg version="1.1" id="Layer_1" xmlns:x="&ns_extend;" xmlns:i="&ns_ai;" xmlns:graph="&ns_graphs;"
	 xmlns="http://www.w3.org/2000/svg" xmlns:xlink="http://www.w3.org/1999/xlink" x="0px" y="0px" viewBox="0 0 32 32"
	 style="enable-background:new 0 0 32 32;" xml:space="preserve">
<style type="text/css">
	.st0{fill:#D6E2E8;}
</style>
<metadata>
	<sfw  xmlns="&ns_sfw;">
		<slices></slices>
		<sliceSourceBounds  bottomLeftOrigin="true" height="21.9" width="28.9" x="1.4" y="6.2"></sliceSourceBounds>
	</sfw>
</metadata>
<path class="st0" d="M15.8,25.7c0.6,0,1.2,0,1.9,0c1,0,2,0,3.1,0c0.4,0,0.7-0.1,0.7-0.6c0-0.4-0.3-0.6-0.7-0.6c-0.2,0-0.4,0-0.6,0
	c-2.9,0-5.9,0-8.8,0c-0.2,0-0.4-0.1-0.6,0c-0.2,0.1-0.5,0.4-0.5,0.6s0.3,0.4,0.5,0.5c0.1,0.1,0.3,0,0.4,0
	C12.7,25.7,14.3,25.7,15.8,25.7z"/>
<path class="st0" d="M15.8,25.7c-1.5,0-3.1,0-4.6,0c-0.2,0-0.3,0.1-0.4,0c-0.2-0.1-0.5-0.4-0.5-0.5c0-0.2,0.3-0.5,0.5-0.6
	c0.1-0.1,0.4,0,0.6,0c2.9,0,5.9,0,8.8,0c0.2,0,0.4,0,0.6,0c0.4,0,0.7,0.2,0.7,0.6s-0.3,0.6-0.7,0.6c-1,0-2,0-3.1,0
	C17,25.7,16.4,25.7,15.8,25.7z"/>
<path class="st0" d="M29.3,3.9c-9,0-18,0-26.9,0c-0.3,0-0.6,0.2-1,0.4c0,6.2,0,12.4,0,18.6c0.3,0.1,0.6,0.4,1,0.4c9,0,17.9,0,26.9,0
	c0.3,0,0.7-0.2,1-0.4c0-6.2,0-12.4,0-18.6C29.9,4.2,29.6,3.9,29.3,3.9z M29,22.1c-8.8,0-17.6,0-26.4,0c0-5.7,0-11.3,0-16.9
	c8.8,0,17.6,0,26.4,0C29,10.8,29,16.4,29,22.1z"/>
<path class="st0" d="M19.5,10.7c0-1.9,1.7-3.6,3.5-3.6c1.9,0,3.6,1.7,3.6,3.6s-1.7,3.6-3.6,3.6C21.2,14.3,19.5,12.6,19.5,10.7z
	 M23.6,7.8c-1.5-0.5-3,0.4-3.4,2c-0.5,1.7,0.4,3.3,2,3.8c1.3,0.4,3.3-0.5,3.4-1.8c-0.8-0.1-1.6-0.2-2.4-0.3
	c-0.9-0.1-1.1-0.6-0.7-1.4C22.8,9.3,23.2,8.5,23.6,7.8z M22.8,10.4c1,0.1,1.8,0.1,2.9,0.2c-0.5-0.8-0.9-1.5-1.4-2.3
	C23.6,9.1,23.3,9.7,22.8,10.4z"/>
<path class="st0" d="M15.8,13.7c0,1.7,0,3.4,0,5.1c0,0.4,0,0.9-0.6,0.9s-0.6-0.5-0.6-0.9c0-3.4,0-6.8,0-10.1c0,0,0,0,0-0.1
	c0-0.5,0-0.9,0.6-0.9s0.6,0.5,0.6,0.9C15.8,10.3,15.8,12,15.8,13.7z"/>
<path class="st0" d="M13.4,15.5c0,1.1,0,2.2,0,3.3c0,0.4,0,0.9-0.6,0.9c-0.5,0-0.6-0.5-0.6-0.9c0-2.2,0-4.4,0-6.6
	c0-0.4,0-0.9,0.6-0.9s0.6,0.5,0.6,0.9C13.4,13.3,13.4,14.4,13.4,15.5z"/>
<path class="st0" d="M7.4,16.1c0-0.9,0-1.9,0-2.8c0-0.4,0.1-0.7,0.6-0.8c0.5,0,0.6,0.3,0.6,0.8c0,1.9,0,3.8,0,5.7
	c0,0.4-0.1,0.8-0.6,0.8S7.4,19.5,7.4,19C7.4,18,7.4,17,7.4,16.1z"/>
<path class="st0" d="M9.8,16.6c0-0.7,0-1.5,0-2.3c0-0.4,0.1-0.7,0.6-0.7c0.4,0,0.6,0.3,0.6,0.7c0,1.5,0,3,0,4.6
	c0,0.4-0.2,0.7-0.6,0.7c-0.4,0-0.5-0.3-0.5-0.7C9.8,18.2,9.8,17.4,9.8,16.6z"/>
<path class="st0" d="M6.2,18c0,0.4,0.1,0.8,0,1.1c-0.1,0.2-0.3,0.6-0.5,0.6s-0.6-0.3-0.6-0.5C5,18.3,5,17.5,5,16.7
	c0-0.2,0.4-0.4,0.6-0.6c0.2,0.2,0.5,0.4,0.5,0.6C6.2,17.1,6.2,17.5,6.2,18z"/>
</svg>
