<?xml version="1.0" encoding="utf-8"?>
<!-- Generator: Adobe Illustrator 23.1.0, SVG Export Plug-In . SVG Version: 6.00 Build 0)  -->
<!DOCTYPE svg PUBLIC "-//W3C//DTD SVG 1.1//EN" "http://www.w3.org/Graphics/SVG/1.1/DTD/svg11.dtd" [
	<!ENTITY ns_extend "http://ns.adobe.com/Extensibility/1.0/">
	<!ENTITY ns_ai "http://ns.adobe.com/AdobeIllustrator/10.0/">
	<!ENTITY ns_graphs "http://ns.adobe.com/Graphs/1.0/">
	<!ENTITY ns_vars "http://ns.adobe.com/Variables/1.0/">
	<!ENTITY ns_imrep "http://ns.adobe.com/ImageReplacement/1.0/">
	<!ENTITY ns_sfw "http://ns.adobe.com/SaveForWeb/1.0/">
	<!ENTITY ns_custom "http://ns.adobe.com/GenericCustomNamespace/1.0/">
	<!ENTITY ns_adobe_xpath "http://ns.adobe.com/XPath/1.0/">
]>
<svg version="1.1" id="Layer_1" xmlns:x="&ns_extend;" xmlns:i="&ns_ai;" xmlns:graph="&ns_graphs;"
	 xmlns="http://www.w3.org/2000/svg" xmlns:xlink="http://www.w3.org/1999/xlink" x="0px" y="0px" viewBox="0 0 32 32"
	 style="enable-background:new 0 0 32 32;" xml:space="preserve">
<style type="text/css">
	.st0{fill:#D6E2E8;}
</style>
<metadata>
	<sfw  xmlns="&ns_sfw;">
		<slices></slices>
		<sliceSourceBounds  bottomLeftOrigin="true" height="27.2" width="27.6" x="2" y="2.5"></sliceSourceBounds>
	</sfw>
</metadata>
<path class="st0" d="M28.7,18.9c0.2-0.3,0.5-0.5,0.7-0.8c0.3-0.4,0.2-1-0.1-1.2c-0.5-0.4-1.1-0.9-1.6-1.3c-0.1-0.1-0.2-0.2-0.3-0.2
	c-0.4-0.1-0.7-0.1-1,0.2c-0.2,0.2-0.4,0.4-0.6,0.6c-0.1,0.1-0.1,0.1,0,0.1l0,0c1,0.5,1.9,1.2,2.6,2.1C28.5,18.6,28.6,18.7,28.7,18.9
	z"/>
<path class="st0" d="M16.4,18.9c0-0.1,0.1-0.1,0.1-0.1c0.5-0.7,1.1-1.4,1.9-1.9c0.3-0.2,0.6-0.4,1-0.6c0.1-0.1,0.1-0.1,0-0.1
	c-0.2-0.2-0.4-0.4-0.6-0.6c-0.3-0.3-0.9-0.3-1.2-0.1c-0.6,0.5-1.1,1-1.7,1.4c-0.3,0.3-0.4,0.8-0.1,1.2c0.1,0.2,0.3,0.4,0.5,0.5
	C16.2,18.7,16.3,18.8,16.4,18.9z"/>
<path class="st0" d="M10.1,7c0,1.3,0,2.7,0,4c4.1,0,8.1,0,12.2,0c0-1.3,0-2.7,0-4C18.2,7,14.2,7,10.1,7z M21.5,10.2
	c-3.5,0-7,0-10.5,0c0-0.8,0-1.6,0-2.4c3.5,0,7,0,10.5,0C21.5,8.6,21.5,9.4,21.5,10.2z"/>
<path class="st0" d="M28.7,18.9c-0.1-0.2-0.2-0.3-0.3-0.5c-0.7-0.9-1.5-1.6-2.6-2.1l0,0c-0.1-0.1-0.1-0.1,0-0.1
	c0.2-0.2,0.4-0.4,0.6-0.6c0.3-0.3,0.6-0.3,1-0.2c0.1,0,0.2,0.1,0.3,0.2c0.5,0.4,1.1,0.9,1.6,1.3c0.3,0.2,0.4,0.8,0.1,1.2
	C29.2,18.3,28.9,18.6,28.7,18.9z"/>
<path class="st0" d="M16.4,18.9c-0.1-0.1-0.2-0.2-0.3-0.3c-0.2-0.2-0.3-0.4-0.5-0.5c-0.3-0.4-0.2-0.9,0.1-1.2c0.5-0.5,1.1-1,1.7-1.4
	c0.4-0.3,1-0.3,1.2,0.1c0.2,0.2,0.4,0.4,0.6,0.6c0.1,0.1,0.1,0.1,0,0.1c-0.3,0.2-0.6,0.3-1,0.6C17.5,17.4,16.8,18.1,16.4,18.9
	C16.5,18.8,16.4,18.8,16.4,18.9z"/>
<path class="st0" d="M25.9,22.2c-0.1,0-0.2,0-0.2,0c-0.8,0-1.5,0-2.3,0c-0.1,0-0.2,0-0.3,0c-0.2,0-0.2-0.1-0.2-0.2
	c0.1-0.5,0.1-1,0.1-1.5s0-1,0-1.5c0-0.1-0.1-0.3-0.3-0.3c-0.1,0-0.2,0.1-0.2,0.2s0,0.2,0,0.4c0,0.9,0,1.9,0,2.8c0,0.1,0,0.1-0.1,0.2
	c-0.2,0.1-0.3,0.3-0.3,0.5c0,0.3,0.1,0.5,0.3,0.6c0.2,0.1,0.5,0.1,0.7,0c0.1-0.1,0.2-0.1,0.3-0.1c0.3,0,0.6,0,0.9,0
	c0.6,0,1.2,0,1.8,0c0.2,0,0.4-0.2,0.4-0.4C26.3,22.4,26.1,22.2,25.9,22.2z"/>
<path class="st0" d="M27.5,27c0-0.1,0-0.1,0-0.2c0.1-0.1,0.1-0.1,0.2-0.2c1-1.2,1.5-2.5,1.5-4.1c0-0.2,0-0.5-0.2-0.9
	c-0.1-0.6-0.3-1.1-0.5-1.7c-0.8-1.6-2-2.7-3.7-3.3c-1.4-0.5-2.8-0.5-4.3-0.1C19,17.1,17.8,18,17,19.3c-0.9,1.3-1.2,2.7-0.9,4.2
	c0.1,0.8,0.4,1.5,0.8,2.2c0.2,0.4,0.5,0.7,0.8,1c0.1,0.1,0.1,0.1,0,0.3c-0.3,0.4-0.5,0.8-0.7,1.2c-0.1,0.3-0.2,0.5-0.2,0.8
	c0,0.4,0.3,0.5,0.6,0.5c0.3-0.1,0.6-0.2,0.8-0.3c0.5-0.3,0.9-0.6,1.4-0.9c0.1-0.1,0.2-0.1,0.3,0c1.1,0.5,2.3,0.7,3.5,0.5
	c0.7-0.1,1.4-0.3,2-0.5c0.1-0.1,0.2,0,0.3,0c0.4,0.3,0.9,0.6,1.3,0.9c0.3,0.2,0.6,0.3,0.9,0.3s0.5-0.1,0.5-0.4c0-0.1,0-0.2,0-0.3
	c-0.1-0.4-0.2-0.7-0.4-1C27.9,27.6,27.7,27.3,27.5,27z M24.1,27.7c-1.1,0.3-2.2,0.2-3.3-0.2c-1.4-0.5-2.4-1.4-3-2.6
	c-1-2-0.6-4.4,1-6c0.9-0.8,1.9-1.3,3.1-1.5c0.5-0.1,1-0.1,1.4,0c1.9,0.2,3.8,1.4,4.6,3.5c0.2,0.6,0.3,1,0.3,1.8
	C28.2,24.7,26.7,27,24.1,27.7z"/>
<path class="st0" d="M22.9,20.4c0,0.5,0,1,0,1.5c0,0.2,0.1,0.2,0.2,0.2s0.2,0,0.3,0c0.8,0,1.5,0,2.3,0c0.1,0,0.2,0,0.2,0
	c0.2,0,0.4,0.2,0.4,0.4c0,0.2-0.2,0.4-0.4,0.4c-0.6,0-1.2,0-1.8,0c-0.3,0-0.6,0-0.9,0c-0.1,0-0.2,0-0.3,0.1c-0.2,0.1-0.5,0.2-0.7,0
	c-0.2-0.1-0.4-0.3-0.3-0.6c0-0.2,0.1-0.4,0.3-0.5c0.1-0.1,0.1-0.1,0.1-0.2c0-0.9,0-1.9,0-2.8c0-0.1,0-0.2,0-0.4
	c0-0.1,0.1-0.2,0.2-0.2c0.2,0,0.3,0.1,0.3,0.3C22.9,19.4,22.9,19.9,22.9,20.4L22.9,20.4z"/>
<g>
	<path class="st0" d="M26.4,18.1c0-4.2,0-8.4,0-12.6c0-0.1,0-0.2,0-0.3C26.3,5,26.2,4.8,26,4.8s-0.4,0.1-0.4,0.4c0,0.1,0,0.2,0,0.3
		c0,4,0,8,0,12C25.8,17.7,26.1,17.9,26.4,18.1z"/>
	<path class="st0" d="M25.5,27.4L25.5,27.4L25.5,27.4c-1,0.5-2,0.7-3.1,0.7c-0.9,0-1.8-0.2-2.6-0.6c-3.2,0-6.5,0-9.7,0
		c-1,0-2.1,0-3.1,0c-0.3,0-0.5,0.2-0.5,0.4c0,0.3,0.2,0.4,0.5,0.4c6.4,0,12.7,0,19.1,0c0.1,0,0.2,0,0.3,0c0-0.1,0-0.2,0-0.3
		c0-0.4,0-0.7,0-1.1C26.1,27.1,25.8,27.2,25.5,27.4z"/>
</g>
<path class="st0" d="M18,26.3c-0.3-0.3-0.5-0.5-0.7-0.9c-0.4,0-0.7,0-1.1,0c-3.7,0-7.4,0-11.1,0c0-0.5,0-1.1,0-1.7
	c0.3,0,0.6,0,0.9,0c0.7,0,1.2-0.6,1.2-1.3c0-0.7-0.5-1.3-1.2-1.3c-0.3,0-0.6,0-0.9,0c0-0.4,0-0.9,0-1.3c0.3,0,0.5,0,0.8,0
	c0.8,0,1.3-0.6,1.3-1.3c0-0.7-0.6-1.2-1.3-1.2c-0.3,0-0.5,0-0.8,0c0-0.5,0-1.1,0-1.6c0.3,0,0.6,0,0.9,0c0.7,0,1.2-0.6,1.2-1.3
	s-0.6-1.2-1.3-1.2c-0.3,0-0.5,0-0.8,0c0-0.5,0-1.1,0-1.6c0.3,0,0.6,0,0.9,0c0.7,0,1.2-0.6,1.2-1.3C7.3,9.6,6.7,9,6,9
	C5.7,9,5.5,9,5.1,9c0-0.5,0-1.1,0-1.6c0.3,0,0.6,0,0.9,0c0.7,0,1.2-0.6,1.2-1.3S6.7,4.9,6,4.8c-0.3,0-0.5,0-0.7,0
	c-0.1,0-0.2-0.1-0.2-0.1c0-0.4,0-0.9,0-1.3c0-0.1,0-0.2,0-0.3c6.2,0,12.3,0,18.5,0c0,4.6,0,9.2,0,13.8c0.3,0,0.5,0.1,0.8,0.2
	c0-4.9,0-9.9,0-14.8c-6.8,0-13.5,0-20.2,0c0,0.8,0,1.7,0,2.5c-0.3,0-0.6,0-0.9,0C2.6,4.8,2,5.3,2,6.1c0,0.7,0.6,1.3,1.2,1.3
	c0.3,0,0.6,0,0.9,0c0,0.3,0,0.6,0,0.8c0,0.3,0,0.5,0,0.8C3.9,9,3.6,9,3.3,9C2.6,9,2,9.5,2,10.2s0.5,1.3,1.2,1.3c0.3,0,0.6,0,0.9,0
	c0,0.5,0,1.1,0,1.6c-0.3,0-0.5,0-0.8,0c-0.7,0-1.3,0.5-1.3,1.3c0,0.7,0.5,1.3,1.3,1.3c0.3,0,0.6,0,0.9,0c0,0.3,0,0.6,0,0.8
	c0,0.3,0,0.5,0,0.8c-0.3,0-0.6,0-0.9,0c-0.7,0-1.3,0.5-1.3,1.3c0,0.7,0.5,1.3,1.3,1.3c0.3,0,0.6,0,0.9,0c0,0.4,0,0.9,0,1.3
	c-0.3,0-0.6,0-0.9,0c-0.7,0-1.3,0.5-1.3,1.3c0,0.7,0.6,1.3,1.3,1.3c0.3,0,0.6,0,0.9,0c0,0.9,0,1.7,0,2.5C8.8,26.3,13.4,26.3,18,26.3
	z M3.3,6.5C3,6.5,3,6.4,3,6.1c0-0.4,0-0.5,0.3-0.5c0.9,0,1.8,0,2.7,0c0.3,0,0.3,0.1,0.3,0.4S6.2,6.4,6,6.4c-0.5,0-0.9,0-1.4,0
	C4.2,6.5,3.8,6.5,3.3,6.5z M3.3,10.7c-0.3,0-0.4-0.1-0.4-0.4C3,9.9,3,9.8,3.3,9.8c0.9,0,1.8,0,2.7,0c0.3,0,0.3,0.1,0.3,0.4
	c0,0.4-0.1,0.4-0.4,0.5c-0.4,0-0.9,0-1.3,0C4.2,10.7,3.8,10.7,3.3,10.7z M3.3,14.9C3,14.9,3,14.8,3,14.5C3,14.1,3,14,3.3,14
	c0.9,0,1.8,0,2.7,0c0.3,0,0.3,0.1,0.3,0.4c0,0.4-0.1,0.5-0.3,0.5c-0.4,0-0.9,0-1.4,0C4.2,14.9,3.8,14.9,3.3,14.9z M3.3,19.1
	C3,19.1,3,19,3,18.6s0.1-0.4,0.4-0.4c0.9,0,1.8,0,2.7,0c0.3,0,0.4,0.1,0.4,0.4c0,0.4-0.1,0.5-0.4,0.5c-0.4,0-0.9,0-1.3,0
	S3.8,19.1,3.3,19.1z M3.3,22.9C3,22.9,3,22.8,3,22.4C3,22.1,3.1,22,3.3,22c0.4,0,0.9,0,1.4,0c0.4,0,0.9,0,1.3,0
	c0.3,0,0.4,0.1,0.4,0.4c0,0.4-0.1,0.5-0.4,0.5C5.1,22.9,4.2,22.9,3.3,22.9z"/>
</svg>
