<?xml version="1.0" encoding="utf-8"?>
<!-- Generator: Adobe Illustrator 23.1.0, SVG Export Plug-In . SVG Version: 6.00 Build 0)  -->
<!DOCTYPE svg PUBLIC "-//W3C//DTD SVG 1.1//EN" "http://www.w3.org/Graphics/SVG/1.1/DTD/svg11.dtd" [
	<!ENTITY ns_extend "http://ns.adobe.com/Extensibility/1.0/">
	<!ENTITY ns_ai "http://ns.adobe.com/AdobeIllustrator/10.0/">
	<!ENTITY ns_graphs "http://ns.adobe.com/Graphs/1.0/">
	<!ENTITY ns_vars "http://ns.adobe.com/Variables/1.0/">
	<!ENTITY ns_imrep "http://ns.adobe.com/ImageReplacement/1.0/">
	<!ENTITY ns_sfw "http://ns.adobe.com/SaveForWeb/1.0/">
	<!ENTITY ns_custom "http://ns.adobe.com/GenericCustomNamespace/1.0/">
	<!ENTITY ns_adobe_xpath "http://ns.adobe.com/XPath/1.0/">
]>
<svg version="1.1" id="Layer_1" xmlns:x="&ns_extend;" xmlns:i="&ns_ai;" xmlns:graph="&ns_graphs;"
	 xmlns="http://www.w3.org/2000/svg" xmlns:xlink="http://www.w3.org/1999/xlink" x="0px" y="0px" viewBox="0 0 32 32"
	 style="enable-background:new 0 0 32 32;" xml:space="preserve">
<style type="text/css">
	.st0{fill:#FFFFFF;}
	.st1{fill:#D6E2E8;}
</style>
<metadata>
	<sfw  xmlns="&ns_sfw;">
		<slices></slices>
		<sliceSourceBounds  bottomLeftOrigin="true" height="24.6" width="27.9" x="2.1" y="3.4"></sliceSourceBounds>
	</sfw>
</metadata>
<path class="st0" d="M24.4,25.3c0,0.4,0,0.8,0,1.2c0,0.2-0.1,0.3-0.1,0.4c-0.1-0.1-0.3-0.1-0.3-0.2c-0.6-0.7-1.2-1.3-1.8-2
	c-0.3-0.3-0.6-0.5-1-0.5c-2.1-0.1-3.9-1-5.3-2.6c-0.1-0.1-0.2-0.3-0.3-0.3s-0.4-0.1-0.4,0c-0.2,0-0.2,0.2-0.2,0.4
	c0,0.1,0.1,0.2,0.2,0.3c1.6,1.9,3.5,2.8,5.7,3c0.3,0,0.6,0.2,0.8,0.4c0.9,1,1.7,2,2.6,3c0.1,0.1,0.4,0.3,0.5,0.2
	c0.1-0.1,0.2-0.4,0.2-0.6c0-0.9,0.1-1.8,0-2.8c-0.1-0.8,0.2-1.2,0.8-1.6c3.9-2.2,5.8-8.8,1.7-13.2c-2.4-2.6-5.2-3.3-8.4-2.4
	c-0.3,0.1-0.7,0.1-0.6,0.6c0,0.3,0.3,0.4,0.8,0.2c2.8-0.7,5.3-0.2,7.4,1.9c2,2,2.8,4.4,2.1,7.4c-0.6,2.4-1.9,4.1-3.9,5.1
	c-0.6,0.3-0.6,0.3-0.6,1C24.4,24.7,24.4,25,24.4,25.3z"/>
<path class="st1" d="M17.4,8c-3.3-5.3-10.7-5.3-14,0c-1,1.6-1.5,3.3-1.3,5.3c0.3,3.3,1.8,5.7,4.4,7.1c0.2,0.1,0.3,0.3,0.3,0.6
	c0,0.6,0,1.2,0,1.7s0,1.1,0,1.6C6.8,24.5,7,24.7,7,25c0.2-0.1,0.5-0.1,0.6-0.3c0.9-1,1.7-2,2.6-3c0.2-0.2,0.5-0.3,0.7-0.4
	c1.6-0.2,3.1-0.7,4.4-1.7C18.9,17,19.8,11.8,17.4,8z M15.1,18.8c-1.3,1.1-2.8,1.6-4.4,1.7c-0.3,0-0.6,0.1-0.8,0.4
	c-0.6,0.7-1.2,1.4-1.8,2.1c-0.1,0.1-0.3,0.2-0.4,0.3c0-0.2-0.1-0.4-0.1-0.5c0-0.3,0-0.7,0-1.1c0-0.3,0-0.6,0-0.9c0-0.8,0-0.8-0.6-1
	c-2-1-3.4-2.7-4-5.2C2.4,12,3,9.7,4.6,7.8C7.7,3.9,13.4,4,16.4,7.9C19,11.2,18.4,16.2,15.1,18.8z"/>
<path class="st1" d="M24.4,25.3c0-0.3,0-0.6,0-0.9c0-0.8,0-0.8,0.6-1c2-1,3.4-2.7,3.9-5.1c0.7-3-0.1-5.4-2.1-7.4
	c-2.1-2.1-4.7-2.7-7.4-1.9c-0.5,0-0.7,0-0.7-0.4c0-0.5,0.3-0.5,0.6-0.6c3.2-0.9,6.1-0.2,8.4,2.4c4,4.5,2.1,11-1.7,13.2
	c-0.7,0.4-0.9,0.8-0.8,1.6c0.1,0.9,0,1.8,0,2.8c0,0.2-0.1,0.5-0.2,0.6s-0.4-0.1-0.5-0.2c-0.9-1-1.8-2-2.6-3C21.6,25.2,21.3,25,21,25
	c-2.2-0.2-4.2-1.1-5.7-3c-0.1-0.1-0.2-0.2-0.2-0.3c0-0.2,0-0.4,0.1-0.5s0.3-0.1,0.4,0c0.1,0.1,0.2,0.2,0.3,0.3
	c1.5,1.7,3.3,2.5,5.3,2.6c0.4,0,0.7,0.2,1,0.5c0.6,0.7,1.2,1.4,1.8,2c0.1,0.1,0.2,0.1,0.3,0.2c0-0.2,0.1-0.3,0.1-0.4
	C24.4,26.1,24.4,25.7,24.4,25.3z"/>
</svg>
