<?xml version="1.0" encoding="utf-8"?>
<!-- Generator: Adobe Illustrator 23.1.0, SVG Export Plug-In . SVG Version: 6.00 Build 0)  -->
<!DOCTYPE svg PUBLIC "-//W3C//DTD SVG 1.1//EN" "http://www.w3.org/Graphics/SVG/1.1/DTD/svg11.dtd" [
	<!ENTITY ns_extend "http://ns.adobe.com/Extensibility/1.0/">
	<!ENTITY ns_ai "http://ns.adobe.com/AdobeIllustrator/10.0/">
	<!ENTITY ns_graphs "http://ns.adobe.com/Graphs/1.0/">
	<!ENTITY ns_vars "http://ns.adobe.com/Variables/1.0/">
	<!ENTITY ns_imrep "http://ns.adobe.com/ImageReplacement/1.0/">
	<!ENTITY ns_sfw "http://ns.adobe.com/SaveForWeb/1.0/">
	<!ENTITY ns_custom "http://ns.adobe.com/GenericCustomNamespace/1.0/">
	<!ENTITY ns_adobe_xpath "http://ns.adobe.com/XPath/1.0/">
]>
<svg version="1.1" id="Layer_1" xmlns:x="&ns_extend;" xmlns:i="&ns_ai;" xmlns:graph="&ns_graphs;"
	 xmlns="http://www.w3.org/2000/svg" xmlns:xlink="http://www.w3.org/1999/xlink" x="0px" y="0px" viewBox="0 0 32 32"
	 style="enable-background:new 0 0 32 32;" xml:space="preserve">
<style type="text/css">
	.st0{fill:#D6E2E8;}
</style>
<metadata>
	<sfw  xmlns="&ns_sfw;">
		<slices></slices>
		<sliceSourceBounds  bottomLeftOrigin="true" height="30.9" width="21.8" x="5" y="0.3"></sliceSourceBounds>
	</sfw>
</metadata>
<path class="st0" d="M26.3,27.6c-0.1,0-0.2,0-0.3,0c0-0.5,0-1,0-1.5c0-0.1,0-0.3-0.1-0.4c-0.7-2-1.4-4-2.1-6
	c-0.1-0.4-0.3-0.5-0.7-0.3c-0.9,0.3-1.7,0.4-2.6,0.3c-0.5,0-1-0.1-1.5-0.1c-1,0-1.9,0.5-2.6,1.1c-0.2,0.2-0.5,0.2-0.8,0.1
	c-0.3-0.2-0.7-0.4-1-0.5c-0.9-0.3-1.8-0.4-2.7-0.3c-1,0.1-1.9,0-2.8-0.5c-0.5-0.2-0.7-0.2-0.9,0.4c-0.6,1.6-1.1,3.2-1.7,4.8
	C6.2,25.4,6,26.1,6,26.9c0,0.3-0.1,0.5-0.1,0.8c-0.1,0-0.2,0-0.4,0c-0.3,0-0.5,0.1-0.5,0.4s0.2,0.5,0.4,0.5c0.3,0,0.6,0.1,1,0.1
	c1.5,0.2,3,0.3,4.4,0.5c1.2,0.2,2.2,0.6,2.9,1.7c0.2,0.4,0.6,0.6,1,0.7c0.6,0.1,1.2,0.1,1.8,0.1c0.9,0,1.6-0.3,2.1-1.2
	c0.3-0.5,0.9-0.9,1.5-1.1c1-0.3,2-0.4,3-0.5c1.1-0.1,2.2-0.3,3.3-0.4c0.3,0,0.4-0.2,0.4-0.5C26.8,27.8,26.6,27.6,26.3,27.6z
	 M16.4,27.4c0-1.7,0-3.5,0-5.3c0-0.1,0-0.2,0.1-0.3c0.3-0.3,0.7-0.6,1.1-0.9c0.7-0.4,1.4-0.5,2.2-0.5c0.9,0.1,1.8,0.2,2.6,0
	c0.2,0,0.3-0.1,0.5-0.1c0.2-0.1,0.2,0,0.3,0.2c0.5,1.5,1.1,3,1.6,4.4c0.1,0.2,0.1,0.4,0.2,0.6c-1,0.1-1.9,0.2-2.8,0.3
	c-1.2,0.2-2.3,0.3-3.4,0.5c-0.8,0.2-1.5,0.6-2.1,1.2c-0.1,0.1-0.1,0.1-0.3,0.2C16.4,27.7,16.4,27.6,16.4,27.4z M8.9,20.5
	c0.3,0.1,0.6,0.2,0.9,0.3c0.8,0.2,1.5,0.2,2.3,0.2c0.9,0,1.8,0.1,2.6,0.5c0.7,0.4,0.7,0.4,0.7,1.2c0,1.6,0,3.2,0,4.7
	c0,0.1,0,0.1,0,0.3c-0.1-0.1-0.2-0.2-0.3-0.3c-0.7-0.6-1.5-0.9-2.4-1c-1.2-0.2-2.5-0.3-3.7-0.5c-0.6-0.1-1.2-0.1-1.8-0.2
	c-0.1,0-0.1,0-0.2,0C7.7,23.9,8.3,22.2,8.9,20.5z M25.1,27.7c0,0-0.1,0.1-0.2,0.1c-0.8,0.1-1.7,0.2-2.5,0.3c-1,0.1-2,0.2-2.9,0.6
	c-0.7,0.3-1.2,0.7-1.6,1.3c-0.3,0.6-0.9,0.8-1.5,0.8c-0.4,0-0.8,0-1.2,0c-0.3,0-0.6-0.2-0.8-0.5c-0.4-0.5-0.8-1-1.4-1.4
	c-0.7-0.4-1.4-0.6-2.2-0.7c-1.2-0.2-2.5-0.3-3.7-0.5c-0.1,0-0.2,0-0.4,0c0-0.4,0.1-0.8,0.1-1.2c0.2,0,0.5,0,0.7,0.1
	c1.5,0.2,2.9,0.3,4.4,0.5c0.8,0.1,1.5,0.2,2.2,0.7c0.4,0.3,0.7,0.6,1,0.9c0.2,0.1,0.3,0.3,0.5,0.4c0.2,0.2,0.5,0.2,0.7,0
	c0.3-0.3,0.7-0.6,1-0.9c0.7-0.7,1.5-0.9,2.4-1c1.7-0.2,3.5-0.4,5.2-0.6c0,0,0,0,0.1,0C25.1,26.9,25.1,27.3,25.1,27.7z"/>
<g>
	<path class="st0" d="M15.9,20.8c0.1-0.2,0.2-0.2,0.2-0.3c1-1.9,2.1-3.8,3.1-5.7c0.6-1,1.1-2.1,1.7-3.1c1.2-1.9,1.3-3.8,0.4-5.7
		c-1.1-2.5-3.6-3.8-6.3-3.4c-4.1,0.6-5.9,4.7-4.7,7.9c0.2,0.6,0.6,1.1,0.9,1.7c0.8,1.5,1.6,2.9,2.4,4.4
		C14.3,17.9,15.1,19.3,15.9,20.8z M17.1,22.1c0.3,0,0.5,0,0.8,0c0.5,0,0.8,0.4,0.8,0.8c0,0.5-0.3,0.9-0.8,0.9c-1.3,0-2.6,0-3.9,0
		c-0.5,0-0.9-0.4-0.9-0.8c0-0.5,0.4-0.8,0.9-0.8c0.2,0,0.4,0,0.7,0c0-0.1,0-0.2-0.1-0.2c-1.7-3.1-3.3-6.2-5-9.2
		c-0.7-1.2-1.3-2.5-1.3-3.9C8.2,6.5,9,4.6,10.6,3c1.6-1.5,3.4-2.4,5.7-2.2c2.4,0.1,4.3,1.1,5.7,3c2.1,2.7,2.2,5.9,0.5,8.8
		c-1.4,2.3-2.6,4.7-3.8,7C18,20.4,17.6,21.2,17.1,22.1z"/>
	<path class="st0" d="M11.8,7.4c0-2.2,1.9-4,4.1-4C18,3.4,20,5.3,20,7.5s-1.9,4.1-4,4.1C13.5,11.5,11.8,9.8,11.8,7.4z M18.3,7.5
		c0-1.5-1-2.4-2.4-2.4s-2.4,1.1-2.4,2.5c0,1.2,1.2,2.4,2.4,2.4C17.3,9.9,18.3,8.9,18.3,7.5z"/>
</g>
</svg>
