<?xml version="1.0" encoding="utf-8"?>
<!-- Generator: Adobe Illustrator 23.1.0, SVG Export Plug-In . SVG Version: 6.00 Build 0)  -->
<!DOCTYPE svg PUBLIC "-//W3C//DTD SVG 1.1//EN" "http://www.w3.org/Graphics/SVG/1.1/DTD/svg11.dtd" [
	<!ENTITY ns_extend "http://ns.adobe.com/Extensibility/1.0/">
	<!ENTITY ns_ai "http://ns.adobe.com/AdobeIllustrator/10.0/">
	<!ENTITY ns_graphs "http://ns.adobe.com/Graphs/1.0/">
	<!ENTITY ns_vars "http://ns.adobe.com/Variables/1.0/">
	<!ENTITY ns_imrep "http://ns.adobe.com/ImageReplacement/1.0/">
	<!ENTITY ns_sfw "http://ns.adobe.com/SaveForWeb/1.0/">
	<!ENTITY ns_custom "http://ns.adobe.com/GenericCustomNamespace/1.0/">
	<!ENTITY ns_adobe_xpath "http://ns.adobe.com/XPath/1.0/">
]>
<svg version="1.1" id="Layer_1" xmlns:x="&ns_extend;" xmlns:i="&ns_ai;" xmlns:graph="&ns_graphs;"
	 xmlns="http://www.w3.org/2000/svg" xmlns:xlink="http://www.w3.org/1999/xlink" x="0px" y="0px" viewBox="0 0 32 32"
	 style="enable-background:new 0 0 32 32;" xml:space="preserve">
<style type="text/css">
	.st0{fill:#D6E2E8;}
</style>
<metadata>
	<sfw  xmlns="&ns_sfw;">
		<slices></slices>
		<sliceSourceBounds  bottomLeftOrigin="true" height="29.3" width="29.6" x="1.2" y="1.4"></sliceSourceBounds>
	</sfw>
</metadata>
<g>
	<path class="st0" d="M10.8,19.7c0.6,0.3,0.5,0.8,0.6,1.4c0,1,0,2,0,3c0.1,1.9,1.2,3,3.1,3c1.7,0,3.3,0,5,0c1,0,1.8,0.1,1.7,1.8
		c1.5-2.3,3.6-1.7,5.4-1.8c1.9-0.1,3-1,3.1-2.9c0.1-3,0.1-5.9,0-8.9c-0.1-1.7-1.3-2.8-3.2-2.8c-1.6-0.1-3.2,0-4.7,0
		c-0.6,0-1.2,0-1.5-0.6c0.3-0.5,0.8-0.5,1.4-0.5c1.7,0,3.3,0,5,0c2.4,0,4.1,1.7,4.1,4.1c0,2.8,0,5.7,0,8.5c0,2.4-1.5,4-3.9,4.2
		c-0.4,0-0.8,0.1-1.2,0c-1.7-0.2-3.1,0.3-4.1,1.7c-0.3,0.4-0.6,0.8-1.2,0.7c-0.6-0.2-0.4-0.8-0.4-1.2c0-0.9-0.4-1.1-1.2-1.1
		c-1.4,0-2.8,0-4.2,0c-2.7-0.1-4.2-1.7-4.3-4.4c0-1,0-2,0-3C10.3,20.4,10.2,19.9,10.8,19.7z"/>
</g>
<path class="st0" d="M27.7,18.4c0.2,0.8-0.3,0.8-0.8,0.8c-3.6,0-7.2,0-10.9,0c-0.5,0-1,0-0.8-0.8c3.4-0.2,6.8-0.1,10.2-0.1
	C26.1,18.3,26.9,18.2,27.7,18.4z"/>
<path class="st0" d="M18.4,16.8c-0.2-0.7,0.3-0.8,0.8-0.8c2.4,0,4.8,0,7.2,0c0.6,0,1.5,0.1,0.5,1c-2.3-0.2-4.6,0-6.9-0.1
	C19.4,16.9,18.9,17,18.4,16.8z"/>
<path class="st0" d="M18.6,6c-1.9-3.6-5-4.8-8.9-4.7C6.2,1.5,3.6,3,2.1,6S0.9,12.1,3,14.7c1,1.2,1.4,2.4,1.3,3.9
	c0,0.5-0.1,1,0.4,1.3c0.5,0.2,0.9-0.2,1.2-0.5c1-1.3,2.1-1.7,3.7-1.3c0.4,0.1,1,0,1.4,0.1c3.9-0.4,6.6-2.3,8.1-6
	C19.6,10,19.6,8,18.6,6z M11.5,16.9c-1.2,0-2.5,0.2-3.6-0.2c-1-0.3-1.4,0.6-2.4,1.1c0.4-1.7-0.5-2.5-1.4-3.4c-1.9-2.3-2.3-4.9-1-7.7
	c1.3-2.7,3.5-4,6.5-4.2c3.5-0.2,6.4,0.8,8.1,4.1C19.9,11.2,16.6,16.7,11.5,16.9z"/>
<path class="st0" d="M9.6,11c0-1,0.2-1.6,1-1.9c0.6-0.3,1-0.8,0.8-1.5c-0.1-0.5-0.5-0.8-1-0.9C9.7,6.6,9.2,6.9,9,7.6
	C8.8,8,8.7,8.5,8.1,8.3C7.6,8.1,7.7,7.5,7.9,7c0.4-1,1.2-1.6,2.3-1.6S12.1,6,12.4,7c0.4,1.1,0.1,2-0.7,2.7c-0.4,0.4-1,0.6-0.9,1.3
	c0,0.5,0,1.1-0.7,1C9.5,11.9,9.6,11.2,9.6,11z"/>
<polygon class="st0" points="16.9,22.4 16.1,23.3 16.4,24.5 15.2,24 14.2,24.6 14.4,23.4 13.4,22.6 14.6,22.4 15.1,21.3 15.7,22.3 
	"/>
<polygon class="st0" points="27.3,22.4 26.5,23.3 26.7,24.4 25.6,23.9 24.6,24.6 24.7,23.4 23.8,22.6 25,22.3 25.5,21.2 26.1,22.3 
	"/>
<polygon class="st0" points="22,22.6 21.2,23.5 21.5,24.7 20.4,24.2 19.3,24.8 19.5,23.6 18.6,22.8 19.7,22.6 20.2,21.5 20.8,22.5 
	"/>
<ellipse class="st0" cx="10.4" cy="13.3" rx="0.7" ry="0.7"/>
</svg>
