<?xml version="1.0" encoding="utf-8"?>
<!-- Generator: Adobe Illustrator 23.1.0, SVG Export Plug-In . SVG Version: 6.00 Build 0)  -->
<!DOCTYPE svg PUBLIC "-//W3C//DTD SVG 1.1//EN" "http://www.w3.org/Graphics/SVG/1.1/DTD/svg11.dtd" [
	<!ENTITY ns_extend "http://ns.adobe.com/Extensibility/1.0/">
	<!ENTITY ns_ai "http://ns.adobe.com/AdobeIllustrator/10.0/">
	<!ENTITY ns_graphs "http://ns.adobe.com/Graphs/1.0/">
	<!ENTITY ns_vars "http://ns.adobe.com/Variables/1.0/">
	<!ENTITY ns_imrep "http://ns.adobe.com/ImageReplacement/1.0/">
	<!ENTITY ns_sfw "http://ns.adobe.com/SaveForWeb/1.0/">
	<!ENTITY ns_custom "http://ns.adobe.com/GenericCustomNamespace/1.0/">
	<!ENTITY ns_adobe_xpath "http://ns.adobe.com/XPath/1.0/">
]>
<svg version="1.1" id="Layer_1" xmlns:x="&ns_extend;" xmlns:i="&ns_ai;" xmlns:graph="&ns_graphs;"
	 xmlns="http://www.w3.org/2000/svg" xmlns:xlink="http://www.w3.org/1999/xlink" x="0px" y="0px" viewBox="0 0 32 32"
	 style="enable-background:new 0 0 32 32;" xml:space="preserve">
<style type="text/css">
	.st0{fill:#D6E2E8;}
</style>
<metadata>
	<sfw  xmlns="&ns_sfw;">
		<slices></slices>
		<sliceSourceBounds  bottomLeftOrigin="true" height="26.3" width="30" x="1" y="3"></sliceSourceBounds>
	</sfw>
</metadata>
<g>
	<path class="st0" d="M25.3,4.9c0,3.7,0,7.3,0,10.9c0.2,0.2,0.4,0.4,0.5,0.7c0-0.2,0-0.4,0-0.6c0-3.7,0-7.4,0-11.1
		c0-0.3,0-0.4-0.4-0.4c-0.5,0-1.1,0-1.6,0c0,0.1,0,0.3,0,0.4C24.3,4.8,24.8,4.8,25.3,4.9z"/>
	<path class="st0" d="M20.5,21.6c-1.9,0-3.9,0-5.8,0c0-0.1,0-0.1,0-0.1c0.3-0.2,0.7-0.3,1-0.4c1.2-0.4,2.5-0.6,3.7-0.6
		c-0.1-0.1-0.1-0.3-0.2-0.4c-0.2,0-0.4,0-0.6,0c-1.7,0.1-3.3,0.6-4.9,1.3c0-0.1,0-0.2,0-0.3c0-5.2,0-10.5,0-15.8
		c0-0.2,0-0.3,0.2-0.4C17,3.4,20,3,23.4,3.8c0-0.2-0.1-0.3-0.3-0.4c-1-0.3-2-0.5-3-0.5c-2.3-0.1-4.5,0.4-6.5,1.5c-0.1,0-0.2,0-0.3,0
		C11.7,3.5,10,3,8.3,2.8c-1.6-0.1-3,0.1-4.5,0.5C3.6,3.4,3.5,3.5,3.5,3.7s0,0.4,0,0.6c-0.7,0-1.4,0-2,0C1,4.3,1,4.4,1,4.8
		C1,10.4,1,16,1,21.6C1,22,1,22,1.4,22.1c6.7,0,13.4,0,20.1,0C21.1,22,20.8,21.8,20.5,21.6z M1.5,21.5c0-5.6,0-11.1,0-16.7
		c0.7,0,1.3,0,2,0c0,0.1,0,0.2,0,0.3c0,5.1,0,10.3,0,15.5c0,0.1,0,0.2,0,0.3c0.1,0.2,0.2,0.3,0.4,0.2c1.2-0.4,2.4-0.6,3.6-0.6
		c1.6,0,3.1,0.3,4.6,0.9c0,0,0,0.1,0.1,0.1C8.6,21.5,5.1,21.5,1.5,21.5z M13.2,21.1c0,0.1,0,0.1,0,0.2c-1.5-0.7-2.9-1.2-4.5-1.3
		c-1.6-0.1-3.1,0-4.7,0.5c0-0.1,0-0.2,0-0.3C4,14.9,4,9.5,4,4.1c0-0.2,0.1-0.3,0.4-0.4c3-0.8,5.9-0.4,8.6,1.1
		c0.1,0.1,0.2,0.1,0.2,0.3C13.2,10.4,13.2,15.8,13.2,21.1z"/>
	<path class="st0" d="M23.3,5.1c0,3.2,0,6.4,0,9.6c0.2,0,0.3,0.1,0.5,0.2c0-3.3,0-6.7,0-10c-0.2,0-0.3,0-0.5,0
		C23.3,4.9,23.3,5,23.3,5.1z"/>
	<path class="st0" d="M23.4,4.4c0.2,0,0.3,0,0.4,0c0-0.1,0-0.2,0-0.3c0-0.2-0.1-0.3-0.3-0.3h-0.1l0,0C23.4,4,23.4,4.2,23.4,4.4z"/>
	<path class="st0" d="M25.3,21.2c0,0.1,0,0.3,0,0.4c-0.2,0-0.3,0-0.5,0c-0.3,0.2-0.7,0.4-1,0.5c0.5,0,1.1,0,1.6,0
		c0.3,0,0.4,0,0.4-0.4s0-0.8,0-1.2C25.7,20.8,25.5,21,25.3,21.2z"/>
</g>
<path class="st0" d="M30.7,27.2c-1.2-1.5-2.4-3.1-3.6-4.6c0,0-0.1,0-0.1-0.1c-0.2,0.2-0.3,0.3-0.5,0.4c-0.3-0.3-0.5-0.6-0.7-0.9
	c2.1-2,1.9-5,0.2-7c-1.6-1.8-4.3-2.1-6.3-0.7c-2,1.3-2.7,3.9-1.6,6.1c0.5,1,1.3,1.8,2.4,2.3c1.5,0.7,3,0.5,4.5-0.3
	c0.3,0.3,0.5,0.6,0.7,0.9c-0.2,0.2-0.3,0.3-0.5,0.4c0,0.1,0.1,0.1,0.1,0.2c0.9,1.1,1.7,2.2,2.6,3.3c0.4,0.5,0.7,1,1.1,1.4
	c0.5,0.6,1.4,0.6,1.8,0C31.1,28.2,31.1,27.7,30.7,27.2z M22.6,22.3c-2.1,0-3.8-1.8-3.8-3.9s1.8-3.8,3.9-3.8c2,0.1,3.7,1.8,3.7,3.9
	S24.7,22.3,22.6,22.3z"/>
</svg>
