<?xml version="1.0" encoding="utf-8"?>
<!-- Generator: Adobe Illustrator 23.1.0, SVG Export Plug-In . SVG Version: 6.00 Build 0)  -->
<!DOCTYPE svg PUBLIC "-//W3C//DTD SVG 1.1//EN" "http://www.w3.org/Graphics/SVG/1.1/DTD/svg11.dtd" [
	<!ENTITY ns_extend "http://ns.adobe.com/Extensibility/1.0/">
	<!ENTITY ns_ai "http://ns.adobe.com/AdobeIllustrator/10.0/">
	<!ENTITY ns_graphs "http://ns.adobe.com/Graphs/1.0/">
	<!ENTITY ns_vars "http://ns.adobe.com/Variables/1.0/">
	<!ENTITY ns_imrep "http://ns.adobe.com/ImageReplacement/1.0/">
	<!ENTITY ns_sfw "http://ns.adobe.com/SaveForWeb/1.0/">
	<!ENTITY ns_custom "http://ns.adobe.com/GenericCustomNamespace/1.0/">
	<!ENTITY ns_adobe_xpath "http://ns.adobe.com/XPath/1.0/">
]>
<svg version="1.1" id="Layer_1" xmlns:x="&ns_extend;" xmlns:i="&ns_ai;" xmlns:graph="&ns_graphs;"
	 xmlns="http://www.w3.org/2000/svg" xmlns:xlink="http://www.w3.org/1999/xlink" x="0px" y="0px" viewBox="0 0 32 32"
	 style="enable-background:new 0 0 32 32;" xml:space="preserve">
<style type="text/css">
	.st0{fill:none;stroke:#D6E2E8;stroke-miterlimit:10;}
</style>
<metadata>
	<sfw  xmlns="&ns_sfw;">
		<slices></slices>
		<sliceSourceBounds  bottomLeftOrigin="true" height="31.8" width="27.1" x="2.4" y="0"></sliceSourceBounds>
	</sfw>
</metadata>
<g>
	<path class="st0" d="M20.9,5.7c0.2-2.3-1.9-5.1-5.1-5C13.2,0.8,11,3,11,5.7c0,2.8,2.2,4.9,5,5C18.9,10.8,21.2,8,20.9,5.7z"/>
	<path class="st0" d="M20.9,5.7c0.3,2.3-2,5.1-5,5c-2.8-0.1-5-2.2-5-5c0-2.7,2.2-5,4.8-5C19,0.6,21.1,3.4,20.9,5.7z"/>
	<path class="st0" d="M27.3,21.8c-1-0.4-1.7-1-2.2-1.9c-0.6-0.8-1.1-1.8-1.6-2.6c-0.8-1.3-1.6-2.7-2.6-4c-0.6-0.7-1.4-1.5-2.3-1.7
		c-3.5-1-6.3-0.4-8.3,2.7c-1,1.6-1.9,3.2-2.9,4.8c-0.8,1.3-1.7,2.3-3.2,2.9c-1,0.4-1.4,1.3-1.3,2.4C3,25.3,3.6,26,4.5,26.3
		c0.2,0.1,0.3,0.1,0.5,0.2c0,0.2,0,0.3,0,0.4c0,1.8,0.8,2.8,2.4,3.3c0.4,0.1,0.8,0.2,1.1,0.3c3.1,0.7,6.2,0.7,9.3,0.7
		c0.4,0,0.8-0.1,1.2-0.2c0.9-0.3,1.4-1.2,1.3-2.2c-0.1-0.9-0.6-1.2-1.7-1.2c-1.4,0-2.8,0-4.2-0.1c-1-0.1-2.1-0.3-3.1-0.4
		c-0.2,0-0.3-0.3-0.4-0.5c0.2-0.1,0.4-0.2,0.6-0.2c0.5,0.1,1,0.2,1.6,0.3c1.9,0.1,3.9,0.1,5.8,0.2c0.5,0,1,0.2,1.3,0.5
		c0.9,0.8,1.1,2.2,0.4,3.2c-0.1,0.1-0.2,0.3-0.3,0.5c0.1,0.1,0.1,0.1,0.1,0.2c1.5-0.4,3.1-0.7,4.5-1.2c1.3-0.5,1.9-1.5,1.9-2.9
		c0-0.3,0-0.5,0-0.7c1.4-0.5,2.1-1.1,2.2-2.2C29.1,23.2,28.7,22.5,27.3,21.8z M11.5,24.9c-1,0-2,0-2.8,0c0.9-1.2,1.9-2.5,2.8-3.8
		C11.5,22.3,11.5,23.5,11.5,24.9z M16,17c-1,0-1.8-0.4-1.8-1s0.8-1,1.8-1s1.8,0.4,1.8,1S17,17,16,17z M20.5,24.8c0-1.3,0-2.6,0-3.9
		c0.9,1.4,1.6,2.9,3,3.9C22.5,24.8,21.5,24.8,20.5,24.8z"/>
</g>
</svg>
