<?xml version="1.0" encoding="utf-8"?>
<!-- Generator: Adobe Illustrator 23.1.0, SVG Export Plug-In . SVG Version: 6.00 Build 0)  -->
<!DOCTYPE svg PUBLIC "-//W3C//DTD SVG 1.1//EN" "http://www.w3.org/Graphics/SVG/1.1/DTD/svg11.dtd" [
	<!ENTITY ns_extend "http://ns.adobe.com/Extensibility/1.0/">
	<!ENTITY ns_ai "http://ns.adobe.com/AdobeIllustrator/10.0/">
	<!ENTITY ns_graphs "http://ns.adobe.com/Graphs/1.0/">
	<!ENTITY ns_vars "http://ns.adobe.com/Variables/1.0/">
	<!ENTITY ns_imrep "http://ns.adobe.com/ImageReplacement/1.0/">
	<!ENTITY ns_sfw "http://ns.adobe.com/SaveForWeb/1.0/">
	<!ENTITY ns_custom "http://ns.adobe.com/GenericCustomNamespace/1.0/">
	<!ENTITY ns_adobe_xpath "http://ns.adobe.com/XPath/1.0/">
]>
<svg version="1.1" id="Layer_1" xmlns:x="&ns_extend;" xmlns:i="&ns_ai;" xmlns:graph="&ns_graphs;"
	 xmlns="http://www.w3.org/2000/svg" xmlns:xlink="http://www.w3.org/1999/xlink" x="0px" y="0px" viewBox="0 0 32 32"
	 style="enable-background:new 0 0 32 32;" xml:space="preserve">
<style type="text/css">
	.st0{fill:#F96C1D;}
</style>
<metadata>
	<sfw  xmlns="&ns_sfw;">
		<slices></slices>
		<sliceSourceBounds  bottomLeftOrigin="true" height="30.5" width="10.2" x="10.6" y="0.5"></sliceSourceBounds>
	</sfw>
</metadata>
<path class="st0" d="M15.5,25.8c0,1.5,0,2.9,0,4.3c0,0.8-0.6,1.4-1.5,1.4c-0.6-0.1-1.1-0.5-1.2-1.1c0-0.2,0-0.4,0-0.6
	c0-5.3,0-10.6,0-15.9c0-0.4-0.1-0.7-0.3-1c-0.8-1.2-1.5-2.5-1.8-4c-0.2-1.4,0.1-2.6,0.9-3.7c0.5-0.7,1.2-1.3,1.8-1.9
	c0.5-0.5,0.8-0.9,0.9-1.6c0-0.6,0.6-0.9,1.2-0.6c0.2,0.1,0.3,0.1,0.5,0c0.6-0.2,1.2,0.1,1.2,0.7c0,0.5,0.3,0.9,0.6,1.3
	c0.5,0.5,0.9,1,1.4,1.4c1.7,1.8,2.1,3.8,1.1,6.1c-0.4,0.9-0.9,1.7-1.4,2.5c-0.1,0.2-0.2,0.4-0.2,0.6c0,1.7,0,3.5,0,5.2
	c0,0.3,0.1,0.5,0.3,0.6c0.4,0.3,0.7,0.6,1,0.9c1.1,1.3,1.1,2.9,0,4.2c-0.7,0.9-1.7,1.5-2.7,2C16.7,26.8,16.1,26.6,15.5,25.8z
	 M15.8,3.1c-0.2,0.3-0.4,0.6-0.6,0.9c-0.5,0.6-1.1,1.2-1.7,1.7c-0.5,0.5-0.9,1.2-1,1.9c-0.2,1.3,0.5,2.4,1.1,3.5
	c0.1,0.1,0.2,0.1,0.3,0.1c1.3,0,2.5,0,3.8,0c0.2,0,0.3-0.1,0.4-0.2c0.4-0.7,0.7-1.4,0.9-2.1c0.2-0.8,0.2-1.7-0.3-2.4
	c-0.3-0.5-0.6-0.8-1-1.2C17,4.7,16.3,4,15.8,3.1z M15.5,24.8c0.3-0.4,0.7-0.6,1.1-0.8c0.5-0.3,0.9-0.6,1.3-1c0.4-0.5,0.4-0.6,0-1.1
	c-0.6-0.6-1.4-1-2.2-1.3c-0.2-0.1-0.2,0-0.2,0.2C15.5,22.1,15.5,23.4,15.5,24.8z"/>
<path class="st0" d="M18.2,8.2c0,1.3-1.1,2.4-2.4,2.5c-1.4,0-2.5-1.1-2.5-2.5c0-1.3,1.1-2.4,2.5-2.4C17.1,5.7,18.2,6.8,18.2,8.2z"/>
</svg>
