<?xml version="1.0" encoding="utf-8"?>
<!-- Generator: Adobe Illustrator 23.1.0, SVG Export Plug-In . SVG Version: 6.00 Build 0)  -->
<!DOCTYPE svg PUBLIC "-//W3C//DTD SVG 1.1//EN" "http://www.w3.org/Graphics/SVG/1.1/DTD/svg11.dtd" [
	<!ENTITY ns_extend "http://ns.adobe.com/Extensibility/1.0/">
	<!ENTITY ns_ai "http://ns.adobe.com/AdobeIllustrator/10.0/">
	<!ENTITY ns_graphs "http://ns.adobe.com/Graphs/1.0/">
	<!ENTITY ns_vars "http://ns.adobe.com/Variables/1.0/">
	<!ENTITY ns_imrep "http://ns.adobe.com/ImageReplacement/1.0/">
	<!ENTITY ns_sfw "http://ns.adobe.com/SaveForWeb/1.0/">
	<!ENTITY ns_custom "http://ns.adobe.com/GenericCustomNamespace/1.0/">
	<!ENTITY ns_adobe_xpath "http://ns.adobe.com/XPath/1.0/">
]>
<svg version="1.1" id="Layer_1" xmlns:x="&ns_extend;" xmlns:i="&ns_ai;" xmlns:graph="&ns_graphs;"
	 xmlns="http://www.w3.org/2000/svg" xmlns:xlink="http://www.w3.org/1999/xlink" x="0px" y="0px" viewBox="0 0 32 32"
	 style="enable-background:new 0 0 32 32;" xml:space="preserve">
<style type="text/css">
	.st0{fill:#F96C1D;}
</style>
<metadata>
	<sfw  xmlns="&ns_sfw;">
		<slices></slices>
		<sliceSourceBounds  bottomLeftOrigin="true" height="30" width="26.3" x="2.7" y="1"></sliceSourceBounds>
	</sfw>
</metadata>
<path class="st0" d="M4.1,15.5c-0.2,0-0.4,0-0.6-0.1c-0.6-0.2-1-0.8-0.9-1.3c0.1-0.6,0.6-1.1,1.3-1.1c0.2,0,0.3-0.1,0.4-0.2
	c0.3-0.2,0.6-0.4,0.8-0.6c0.1-0.1,0.3-0.1,0.3-0.2c1.8-2.9,4.4-4.8,7.7-5.7c0.1,0,0.1-0.1,0.2-0.1c0-0.2,0-0.4,0-0.6s0-0.4,0-0.6
	c0.1,0,0.1-0.1,0.1-0.1c0.5,0,0.5,0,0.5-0.5c0-0.4,0.1-0.6,0.4-0.9c0.3-0.2,0.5-0.5,0.7-0.8c0.2-0.3,0.4-0.4,0.8-0.3
	c0.1,0,0.2,0,0.4,0c0-0.5,0-1,0-1.4c0.2-0.1,0.3,0,0.3,0.2c0,0.4,0,0.8,0,1.2c0.8-0.1,1.1,0.4,1.5,0.8c0.2,0.2,0.4,0.4,0.6,0.6
	c0.1,0.1,0.1,0.2,0.1,0.2c0,0.3,0,0.5,0,0.8c0.2,0,0.4,0,0.5,0.1c0,0.4,0,0.8,0,1.1c1.2,0.5,2.3,0.9,3.4,1.3c0.5-0.6,1-0.7,1.6-0.1
	c0.1,0.1,0.1,0.1,0.2,0.1C25,7.5,25.2,7.7,25.3,8c0.1,0.4-0.1,0.6-0.6,0.8c2.9,2.6,4.4,5.8,4.4,9.6c0,2.7-0.9,5.2-2.5,7.4
	c-3.5,4.6-9.6,6.3-14.9,4.1c-2.9-1.2-5-3.2-6.4-5.9C3.8,21.4,3.5,18.5,4.1,15.5z M5.8,12.2c0.6,0.1,1.1,0.4,1.3,1
	c0,0.1,0.2,0.1,0.3,0.1c0.7,0,1.2,0.5,1.2,1.1c0,0.6-0.5,1.1-1.2,1.1c-0.9,0-1.8,0-2.7,0c-0.2,0-0.3,0-0.4,0.3
	c-0.4,1.9-0.4,3.8,0,5.6c0.1,0.2,0.1,0.4,0.4,0.4c2.2,0,4.3,0,6.5,0c0.1,0,0.2,0,0.3,0c0-3.8,0-7.6,0-11.5c0.5,0,0.9,0,1.4,0
	c0-0.9,0-1.8,0-2.6c0.2,0,0.3,0,0.5,0c0-0.2,0-0.4,0-0.5s0-0.4,0-0.6C10.1,7.3,7.6,9.2,5.8,12.2z M21.2,10.2c0,2.7,0,5.5,0,8.3
	c0.2-0.1,0.3-0.2,0.4-0.3c0.2-0.1,0.4-0.4,0.7-0.4c0.6-0.2,1.1,0.1,1.5,0.8c0,0,0,0,0.1,0c0.6,0,1,0.4,1,0.9c0,0.5-0.4,0.9-1,0.9
	c-0.8,0-1.5,0-2.3,0c-0.1,0-0.3,0-0.5,0c0,0.4,0,0.8,0,1.3c0.1,0,0.1,0,0.2,0c2.2,0,4.5,0,6.7,0c0.2,0,0.3-0.1,0.3-0.3
	c0.4-1.6,0.5-3.2,0.2-4.9c-0.5-3-1.9-5.4-4.1-7.4c-0.1-0.1-0.3-0.2-0.5-0.2c-0.4,0-0.9,0-1.3,0c-0.3,0-0.5-0.1-0.7-0.3
	c-0.2-0.3-0.1-0.6,0.3-1c-0.9-0.5-1.9-0.9-2.9-1.1c0,0.4,0,0.7,0,1.1c0.2,0,0.4,0,0.6,0c0,0.9,0,1.8,0,2.6
	C20.3,10.2,20.7,10.2,21.2,10.2z M14.3,7.6c0,6.7,0,13.4,0,20.1c1.4,0,2.8,0,4.2,0c0-6.7,0-13.4,0-20.1c0.2,0,0.4,0,0.5,0
	C19,7,19,6.5,19,6c-1.8,0-3.5,0-5.2,0c0,0.5,0,1.1,0,1.6C13.9,7.6,14.1,7.6,14.3,7.6z M4.9,22.9c0.3,1.1,1.8,3.4,2.5,3.9
	c0-0.1,0-0.2,0-0.3c0.3-0.1,0.3,0.1,0.2,0.2C7.6,27,7.8,27.2,8,27.5c0.2,0.2,0.4,0.3,0.8,0.3c0.5,0,1,0,1.5,0c0.5,0,0.9,0,1.4,0
	c0-1.6,0-3.2,0-4.8C9.4,22.9,7.2,22.9,4.9,22.9z M21.2,27.7c0.1,0,0.3,0,0.4,0c0.9,0,1.7,0,2.6,0c0.6,0,1-0.5,1-1
	c0-0.1,0.1-0.3,0.1-0.3c0.2,0,0.1,0.2,0.2,0.3c0,0,0,0,0.1,0c1-1.1,1.8-2.4,2.4-3.8c-2.3,0-4.5,0-6.7,0
	C21.2,24.5,21.2,26.1,21.2,27.7z M12.9,27.7c0-5.8,0-11.5,0-17.2c-0.4,0-0.7,0-1.1,0c0,5.7,0,11.5,0,17.2
	C12.2,27.7,12.6,27.7,12.9,27.7z M19.9,10.5c0,5.8,0,11.5,0,17.2c0.4,0,0.7,0,1,0c0-5.8,0-11.5,0-17.2
	C20.5,10.5,20.2,10.5,19.9,10.5z M18.3,30.6c0.1,0,0.2-0.1,0.2-0.1c0.3,0,0.4-0.1,0.4-0.4c0-0.2,0-0.4,0-0.5
	c0.1-0.4,0.4-0.7,0.8-0.6c0.4,0,0.7,0.3,0.8,0.8c0,0.1,0,0.2,0,0.4c0.4-0.2,0.8-0.4,1.3-0.6c0.1,0,0.1-0.1,0.1-0.2
	c0-0.4,0-0.9,0-1.3c-3.7,0-7.4,0-11,0c0,0.4,0,0.9,0,1.3c0,0.1,0.1,0.1,0.1,0.2c0.4,0.2,0.8,0.4,1.3,0.6c0-0.2,0-0.3,0-0.4
	c0.1-0.4,0.4-0.7,0.7-0.7c0.5,0,0.8,0.3,0.8,0.9c0,0.6,0,0.6,0.6,0.7c0,0,0,0,0.1,0c0-0.2,0-0.5,0-0.8c0-0.5,0.4-0.8,0.8-0.8
	s0.8,0.4,0.8,0.9c0,0.3,0,0.6,0,0.9c0.2,0,0.4,0,0.6,0c0-0.4,0-0.7,0-1.1c0-0.4,0.4-0.7,0.8-0.7c0.4,0,0.8,0.4,0.8,0.8
	C18.3,30,18.3,30.3,18.3,30.6z M14,27.7c0-6.6,0-13.2,0-19.9c-0.3,0-0.5,0-0.8,0c0,6.6,0,13.2,0,19.9C13.5,27.7,13.8,27.7,14,27.7z
	 M19.5,27.7c0-6.6,0-13.2,0-19.9c-0.3,0-0.5,0-0.8,0c0,6.6,0,13.2,0,19.9C19.1,27.7,19.3,27.7,19.5,27.7z M7,13.5
	C7,13.5,7,13.5,7,13.5c-0.2-0.6-0.6-1-1.1-1.1c-0.6-0.1-1.1,0.1-1.4,0.7c0,0.1-0.2,0.1-0.3,0.1c-0.6-0.1-1.1,0.3-1.2,0.8
	c-0.1,0.6,0.4,1.1,0.9,1.1c1.2,0,2.4,0,3.6,0c0.4,0,0.7-0.3,0.8-0.7c0.1-0.4-0.1-0.8-0.5-0.9C7.6,13.5,7.3,13.5,7,13.5z M23.6,18.9
	c0-0.1-0.1-0.2-0.1-0.3c-0.3-0.7-1.3-0.8-1.7-0.2c-0.2,0.2-0.3,0.4-0.6,0.3c0,0.5,0,1,0,1.5c1,0,2,0,2.9,0c0.3,0,0.6-0.3,0.6-0.6
	c0-0.3-0.1-0.6-0.5-0.7C24,18.9,23.8,18.9,23.6,18.9z M21.2,22.7c0.6,0,1.1,0,1.6,0c1.6,0,3.3,0,4.9,0c0.1,0,0.3-0.1,0.3-0.1
	c0.1-0.1,0.1-0.3,0.2-0.5c-2.4,0-4.7,0-7,0C21.2,22.2,21.2,22.4,21.2,22.7z M11.6,22c-2.4,0-4.7,0-7,0c0.1,0.2,0.1,0.4,0.2,0.6
	c2.3,0,4.6,0,6.8,0C11.6,22.4,11.6,22.2,11.6,22z M14.3,4.9c1.4,0,2.8,0,4.1,0c0-0.3,0-0.5,0-0.8c-1.4,0-2.7,0-4.1,0
	C14.3,4.4,14.3,4.7,14.3,4.9z M18.3,3.9c-0.1-0.1-0.1-0.1-0.2-0.2c-0.3-0.3-0.6-0.8-0.9-0.9c-0.4-0.2-0.9-0.1-1.3-0.1
	c-0.1,0-0.3,0-0.4,0c-0.4,0.4-0.7,0.7-1.1,1.1C15.8,3.9,17,3.9,18.3,3.9z M24.3,7.7C23.9,7,23.1,7,22.8,7.9
	c-0.4-0.1-0.7,0.1-0.7,0.4c0,0.3,0.2,0.4,0.6,0.4c0.4,0,0.8,0,1.2,0c0.2,0,0.4,0,0.6,0c0.3,0,0.5-0.2,0.5-0.6c0-0.3-0.2-0.4-0.6-0.4
	C24.4,7.7,24.3,7.7,24.3,7.7z M19,5.2c-1.8,0-3.5,0-5.2,0c0,0.1,0,0.3,0,0.4c1.8,0,3.5,0,5.2,0C19,5.5,19,5.4,19,5.2z M17,30.8
	c0.4-0.1,0.8,0,1-0.2c0.1-0.1,0.1-0.6,0.1-0.9c0-0.3-0.2-0.5-0.5-0.5c-0.3,0-0.5,0.1-0.5,0.5C16.9,30,17,30.4,17,30.8z M15.8,30.8
	c0-0.4,0-0.7,0-1.1c0-0.3-0.3-0.5-0.5-0.5c-0.3,0-0.5,0.2-0.5,0.5c0,0.3,0,0.5,0,0.8c0,0.1,0.1,0.2,0.1,0.2
	C15.2,30.7,15.5,30.7,15.8,30.8z M8.7,28C8.7,28.1,8.7,28.1,8.7,28c0.6,0.5,1.2,0.9,1.8,1.3c0-0.5,0-0.9,0-1.3C9.9,28,9.3,28,8.7,28
	z M22.2,29.4c0.7-0.5,1.3-0.8,1.9-1.3c0,0,0-0.1-0.1-0.1c-0.6,0-1.2,0-1.8,0c0,0.1,0,0.1,0,0.2C22.2,28.6,22.2,28.9,22.2,29.4z
	 M20.2,30.2c0-0.2,0-0.3,0-0.4c0-0.3-0.2-0.5-0.5-0.5c-0.3,0-0.5,0.2-0.6,0.5c0,0.2,0,0.5,0,0.7C19.5,30.4,19.9,30.2,20.2,30.2z
	 M13.6,30.5c0-0.1,0-0.2,0-0.3c0-0.1,0-0.3,0-0.5c0-0.4-0.4-0.6-0.8-0.4c-0.3,0.1-0.4,0.4-0.3,0.6c0,0.1,0.1,0.3,0.1,0.3
	C13,30.3,13.3,30.4,13.6,30.5z"/>
<path class="st0" d="M17.9,7.5c0,0.2,0,0.4,0,0.6c0,0.1-0.1,0.1-0.1,0.2c0-0.1-0.1-0.1-0.1-0.2c0-0.4,0-0.8,0-1.2
	c0-0.1,0.1-0.1,0.1-0.1c0.1,0.1,0.1,0.1,0.1,0.2C17.9,7.2,17.9,7.4,17.9,7.5z"/>
<path class="st0" d="M14.7,6.8c0.3-0.1,0.2,0.1,0.2,0.2c0,1.2,0,1.2-0.2,1.2C14.7,7.8,14.7,7.3,14.7,6.8z"/>
<path class="st0" d="M15.6,6.8c0,0.5,0,0.9,0,1.4c0,0,0,0.1-0.1,0.1c-0.1-0.1-0.2-0.1-0.2-0.2c0-0.4,0-0.8,0-1.1
	c0-0.1,0.1-0.1,0.1-0.2C15.6,6.8,15.6,6.8,15.6,6.8z"/>
<path class="st0" d="M16.2,8.3c0-0.5,0-1,0-1.5c0,0,0.1,0,0.1-0.1c0.1,0.1,0.1,0.2,0.1,0.3C16.5,8.2,16.4,8.2,16.2,8.3z"/>
<path class="st0" d="M17.1,8.3c-0.3,0-0.3,0-0.2-1.2c0-0.1,0-0.3,0.2-0.3C17.1,7.3,17.1,7.8,17.1,8.3z"/>
<path class="st0" d="M17.7,19.2c0.1,0.1,0.1,0.1,0.2,0.2c0,0.1,0,0.3,0,0.4c0,0.1-0.1,0.1-0.1,0.2c0-0.1-0.1-0.1-0.1-0.2
	C17.6,19.7,17.6,19.5,17.7,19.2C17.6,19.3,17.7,19.3,17.7,19.2z"/>
<path class="st0" d="M17.7,25.2c0.1,0.1,0.1,0.1,0.1,0.2c0,0.2-0.1,0.4-0.1,0.6c-0.3-0.1-0.1-0.4-0.1-0.5c0-0.1,0-0.1,0-0.2
	C17.7,25.2,17.7,25.2,17.7,25.2z"/>
<path class="st0" d="M17.9,21.1c0,0.1,0,0.1,0,0.2c0,0.1-0.1,0.1-0.1,0.2c-0.1-0.1-0.1-0.1-0.1-0.2c0-0.1,0-0.2,0-0.4
	c0-0.1,0.1-0.1,0.1-0.2c0,0.1,0.1,0.1,0.1,0.2C17.9,21,17.9,21,17.9,21.1z"/>
<path class="st0" d="M17.8,15.6c-0.1-0.1-0.1-0.1-0.2-0.2c0-0.1,0-0.3,0-0.4c0-0.1,0.1-0.1,0.1-0.2c0,0.1,0.1,0.1,0.1,0.2
	C17.9,15.2,17.9,15.3,17.8,15.6C17.8,15.6,17.8,15.6,17.8,15.6z"/>
<path class="st0" d="M17.6,17.7c0.1,0.1,0.2,0.1,0.3,0.2c0,0.2,0,0.4,0,0.5c0,0.1-0.1,0.1-0.1,0.1c-0.1,0-0.1-0.1-0.1-0.1
	C17.6,18.2,17.6,18,17.6,17.7z"/>
<path class="st0" d="M17.8,23c-0.1-0.1-0.1-0.1-0.2-0.1c0-0.2,0-0.4,0-0.5c0-0.1,0.1-0.1,0.1-0.1c0.1,0,0.1,0.1,0.1,0.1
	C17.9,22.6,17.9,22.8,17.8,23C17.8,22.9,17.8,23,17.8,23z"/>
<path class="st0" d="M17.9,11.2c-0.1-0.1-0.2-0.1-0.3-0.2c0-0.2,0-0.4,0-0.5c0,0,0.1-0.1,0.1-0.1c0.1,0,0.1,0.1,0.1,0.1
	C17.9,10.7,17.9,10.9,17.9,11.2z"/>
<path class="st0" d="M17.9,11.9c0,0.2,0,0.4,0,0.6c0,0.1-0.1,0.1-0.1,0.2c0-0.1-0.1-0.1-0.1-0.1c0-0.1,0-0.3,0-0.4
	C17.6,12,17.7,12,17.9,11.9C17.8,11.9,17.8,11.9,17.9,11.9z"/>
<path class="st0" d="M17.9,24.1c0,0.1,0,0.2,0,0.3c0,0.1-0.1,0.1-0.1,0.1c0,0-0.1-0.1-0.1-0.1c0-0.1,0-0.3,0-0.5
	c0-0.1,0.1-0.1,0.1-0.2c0.1,0.1,0.1,0.1,0.1,0.2C17.9,23.9,17.9,24,17.9,24.1L17.9,24.1z"/>
<path class="st0" d="M17.9,16.7c0,0,0,0.1,0,0.1c0,0.1-0.1,0.2-0.1,0.3c0-0.1-0.1-0.2-0.1-0.3c0-0.1,0-0.2,0-0.3
	c0-0.1,0.1-0.1,0.1-0.2c0,0.1,0.1,0.1,0.1,0.2C17.9,16.6,17.9,16.6,17.9,16.7z"/>
<path class="st0" d="M17.9,27c0,0.1,0,0.2,0,0.3c0,0.1-0.1,0.1-0.1,0.1c0,0-0.1-0.1-0.1-0.1c0-0.1,0-0.3,0-0.4
	c0-0.1,0.1-0.1,0.1-0.2c0.1,0.1,0.1,0.1,0.1,0.2C17.9,26.9,17.9,27,17.9,27L17.9,27z"/>
<path class="st0" d="M17.9,13.7c0,0,0,0.1,0,0.1c0,0.1-0.1,0.2-0.1,0.2c0-0.1-0.1-0.2-0.1-0.3c0-0.1,0-0.2,0-0.3
	c0-0.1,0.1-0.1,0.1-0.2c0,0.1,0.1,0.1,0.1,0.2C17.9,13.6,17.9,13.7,17.9,13.7L17.9,13.7z"/>
<path class="st0" d="M14.6,11.1c0-0.2,0-0.4,0-0.6c0-0.1,0.1-0.1,0.1-0.1c0,0.1,0.1,0.1,0.1,0.1c0,0.1,0,0.3,0,0.5
	C14.9,11.1,14.8,11.1,14.6,11.1C14.7,11.2,14.7,11.1,14.6,11.1z"/>
<path class="st0" d="M15.6,10.4c0,0.3,0,0.5,0,0.8c-0.4,0-0.2-0.3-0.2-0.4C15.4,10.6,15.3,10.4,15.6,10.4z"/>
<path class="st0" d="M16.2,10.4c0.3-0.1,0.3,0.1,0.2,0.3c0,0.2,0.1,0.4-0.2,0.5C16.2,10.9,16.2,10.6,16.2,10.4z"/>
<path class="st0" d="M17.1,10.4c0,0.3,0,0.5,0,0.8c0,0,0,0.1-0.1,0.1C17,11.1,16.9,11,16.9,11C16.9,10.8,16.7,10.5,17.1,10.4z"/>
<path class="st0" d="M14.7,11.8c0.1,0.1,0.1,0.1,0.2,0.2c0,0.1,0,0.3,0,0.5c0,0.1-0.1,0.1-0.1,0.1c0-0.1-0.1-0.1-0.1-0.1
	C14.7,12.3,14.7,12.1,14.7,11.8C14.7,11.9,14.7,11.9,14.7,11.8z"/>
<path class="st0" d="M17.1,11.9c0,0.3,0,0.5,0,0.7c0,0-0.1,0-0.1,0.1c-0.1-0.1-0.2-0.1-0.2-0.2C16.8,12,16.9,11.9,17.1,11.9z"/>
<path class="st0" d="M14.6,17.1c0-0.3,0-0.5,0-0.7c0-0.1,0.1-0.1,0.1-0.1c0,0,0.1,0,0.1,0.1c0,0.2,0,0.4,0,0.6
	C14.9,17,14.8,17,14.6,17.1z"/>
<path class="st0" d="M16.3,16.3c0.1,0.1,0.1,0.2,0.1,0.3c0,0.2,0.2,0.4-0.1,0.6c0-0.2-0.1-0.4-0.1-0.5c0-0.1,0-0.1,0-0.2
	C16.2,16.3,16.2,16.3,16.3,16.3z"/>
<path class="st0" d="M17.1,17.1C17,17,16.9,17,16.9,16.9c0-0.2,0-0.4,0-0.5c0-0.1,0.1-0.1,0.1-0.1c0,0,0.1,0.1,0.1,0.1
	C17.1,16.6,17.1,16.8,17.1,17.1z"/>
<path class="st0" d="M14.6,17.7c0.1,0.1,0.2,0.1,0.2,0.2c0,0.2,0,0.4,0,0.5c0,0.1-0.1,0.1-0.1,0.1c0,0-0.1-0.1-0.1-0.1
	C14.6,18.2,14.6,18,14.6,17.7z"/>
<path class="st0" d="M16.3,17.7c0.1,0.1,0.1,0.2,0.1,0.3c0,0.2,0.1,0.5-0.2,0.6C16.2,18.3,16.2,18,16.3,17.7
	C16.2,17.8,16.2,17.8,16.3,17.7z"/>
<path class="st0" d="M17.1,17.8c0,0.3,0,0.5,0,0.8c-0.3,0.1-0.3-0.1-0.2-0.2C16.9,18.1,16.7,17.8,17.1,17.8z"/>
<path class="st0" d="M14.9,23c-0.1-0.1-0.2-0.1-0.2-0.1c0-0.2,0-0.4,0-0.5c0,0,0.1-0.1,0.1-0.1c0.1,0,0.1,0.1,0.1,0.1
	C15,22.5,14.9,22.7,14.9,23C14.9,22.9,14.9,23,14.9,23z"/>
<path class="st0" d="M16.2,22.9c0-0.2,0-0.5,0-0.7c0.2,0,0.2,0,0.2,0.2C16.4,22.9,16.4,22.9,16.2,22.9z"/>
<path class="st0" d="M17.1,22.2c0,0.3,0,0.5,0,0.7c0,0,0,0.1-0.1,0.1c-0.1-0.1-0.2-0.1-0.2-0.2C16.8,22.4,16.9,22.2,17.1,22.2z"/>
<path class="st0" d="M14.6,24.1c0.1-0.1,0.1-0.3,0.2-0.4c0,0.1,0.1,0.3,0.1,0.4c0,0.1,0.1,0.4-0.1,0.4
	C14.7,24.4,14.6,24.2,14.6,24.1z"/>
<path class="st0" d="M16.2,24.5c0-0.3,0-0.5,0-0.8c0,0,0.1,0,0.1-0.1c0.1,0.1,0.1,0.2,0.1,0.3C16.4,24.1,16.5,24.4,16.2,24.5z"/>
<path class="st0" d="M17.1,23.7c0,0.3,0,0.5,0,0.8c0,0-0.1,0-0.1,0.1c-0.1-0.1-0.2-0.1-0.1-0.2C16.9,24.1,16.7,23.8,17.1,23.7z"/>
<path class="st0" d="M14.7,25.1c0.1,0.1,0.1,0.1,0.2,0.2c0,0.1,0,0.3,0,0.5c0,0.1-0.1,0.1-0.1,0.1c0,0-0.1-0.1-0.1-0.1
	C14.6,25.6,14.6,25.4,14.7,25.1C14.7,25.2,14.7,25.2,14.7,25.1z"/>
<path class="st0" d="M17.1,25.2c0,0.2,0,0.4,0,0.6c0,0.1-0.1,0.1-0.1,0.1c0-0.1-0.1-0.1-0.1-0.1c0-0.1,0-0.3,0-0.4
	C16.9,25.3,17,25.3,17.1,25.2C17.1,25.2,17.1,25.2,17.1,25.2z"/>
<path class="st0" d="M16.1,15.6c0-0.3,0-0.5,0-0.6c0,0,0.1-0.1,0.1-0.1c0,0,0.1,0,0.1,0.1c0,0.2,0,0.4,0,0.6
	C16.4,15.5,16.3,15.6,16.1,15.6z"/>
<path class="st0" d="M15.5,23c-0.1-0.1-0.1-0.2-0.1-0.3c0-0.2-0.1-0.4,0.1-0.5c0,0.2,0.1,0.3,0.1,0.5c0,0.1,0,0.1,0,0.2
	C15.6,22.9,15.6,23,15.5,23z"/>
<path class="st0" d="M16.1,19.2c0.1,0.1,0.2,0.1,0.2,0.2c0,0.1,0,0.3,0,0.5c0,0.1-0.1,0.1-0.1,0.1c0-0.1-0.1-0.1-0.1-0.1
	C16.1,19.7,16.1,19.5,16.1,19.2z"/>
<path class="st0" d="M15.6,21.5c-0.1-0.1-0.1-0.1-0.1-0.2c0-0.1,0-0.3,0-0.4c0-0.1,0.1-0.1,0.1-0.2c0,0.1,0.1,0.1,0.1,0.1
	c0,0.2,0,0.4,0,0.5C15.6,21.5,15.6,21.5,15.6,21.5z"/>
<path class="st0" d="M15.6,17.1c-0.1-0.1-0.1-0.1-0.2-0.2c0-0.1,0-0.3,0-0.5c0-0.1,0.1-0.1,0.1-0.1c0,0.1,0.1,0.1,0.1,0.1
	C15.6,16.7,15.6,16.8,15.6,17.1C15.6,17,15.6,17.1,15.6,17.1z"/>
<path class="st0" d="M15.5,18.6c-0.1-0.1-0.1-0.2-0.1-0.3c0-0.2,0.1-0.4,0.1-0.5c0.3,0.1,0.1,0.4,0.1,0.5c0,0.1,0,0.1,0,0.2
	C15.6,18.5,15.6,18.6,15.5,18.6z"/>
<path class="st0" d="M15.6,19.3c0,0.2,0,0.4,0,0.6c0,0,0,0.1-0.1,0.1c-0.1,0-0.1,0-0.1,0c0-0.2,0-0.5,0-0.7
	C15.5,19.3,15.6,19.3,15.6,19.3z"/>
<path class="st0" d="M17.1,19.2c0,0.3,0,0.5,0,0.7c0,0.1-0.1,0.1-0.1,0.1c0,0-0.1-0.1-0.1-0.1c0-0.2,0-0.4,0-0.5
	C16.9,19.3,17,19.3,17.1,19.2z"/>
<path class="st0" d="M17,15.6c-0.1-0.1-0.1-0.1-0.1-0.2c0-0.1,0-0.3,0-0.4c0-0.1,0.1-0.1,0.1-0.2c0,0.1,0.1,0.1,0.1,0.2
	c0,0,0,0.1,0,0.1c0,0.1,0,0.3,0,0.4C17.1,15.6,17.1,15.6,17,15.6z"/>
<path class="st0" d="M15.6,25.2c0,0.3,0,0.5,0,0.7c-0.2,0-0.2,0-0.2-0.2C15.4,25.2,15.4,25.2,15.6,25.2z"/>
<path class="st0" d="M16.3,25.2c0.1,0.1,0.1,0.1,0.1,0.2c0,0.2,0.1,0.4-0.2,0.6C16.2,25.7,16.2,25.5,16.3,25.2
	C16.2,25.2,16.2,25.2,16.3,25.2z"/>
<path class="st0" d="M15.6,23.7c0,0.3,0,0.5,0,0.8c-0.4,0-0.2-0.3-0.2-0.4C15.4,23.9,15.3,23.6,15.6,23.7z"/>
<path class="st0" d="M16.2,20.7c0.1,0.1,0.1,0.1,0.2,0.2c0,0.1,0,0.3,0,0.5c0,0.1-0.1,0.1-0.1,0.1c0,0-0.1-0.1-0.1-0.1
	C16.2,21.2,16.2,21,16.2,20.7C16.2,20.8,16.2,20.7,16.2,20.7z"/>
<path class="st0" d="M15.5,15.6c0-0.1-0.1-0.2-0.1-0.3c0-0.2,0.1-0.3,0.1-0.5c0,0.2,0.1,0.3,0.1,0.5c0,0.1,0,0.1,0,0.2
	C15.6,15.6,15.6,15.6,15.5,15.6z"/>
<path class="st0" d="M14.8,15.6c-0.1-0.1-0.1-0.1-0.1-0.2c0-0.1,0-0.3,0-0.4c0-0.1,0.1-0.1,0.1-0.2c0,0.1,0.1,0.1,0.1,0.2
	C14.9,15.2,14.9,15.3,14.8,15.6C14.9,15.6,14.9,15.6,14.8,15.6z"/>
<path class="st0" d="M16.2,12.7c0-0.3,0-0.5,0-0.8c0,0,0.1,0,0.1-0.1c0.1,0.1,0.2,0.1,0.1,0.2C16.3,12.3,16.5,12.5,16.2,12.7z"/>
<path class="st0" d="M15.6,11.8c0,0.3,0,0.5,0,0.8c0,0-0.1,0-0.1,0.1c-0.1-0.1-0.2-0.1-0.1-0.2C15.4,12.3,15.2,12,15.6,11.8z"/>
<path class="st0" d="M14.6,21.5c0-0.3,0-0.4,0-0.6c0-0.1,0.1-0.1,0.1-0.1c0,0,0.1,0.1,0.1,0.1c0,0.2,0,0.4,0,0.6
	C14.9,21.4,14.8,21.5,14.6,21.5z"/>
<path class="st0" d="M14.7,19.2c0.1,0.1,0.1,0.1,0.2,0.2c0,0.1,0,0.3,0,0.4c0,0.1-0.1,0.1-0.1,0.1c0-0.1-0.1-0.1-0.1-0.1
	C14.6,19.6,14.7,19.5,14.7,19.2C14.7,19.3,14.7,19.3,14.7,19.2z"/>
<path class="st0" d="M17,21.5c-0.1-0.1-0.1-0.1-0.1-0.2c0-0.1,0-0.3,0-0.4c0-0.1,0.1-0.1,0.1-0.1c0,0.1,0.1,0.1,0.1,0.1
	c0,0.2,0,0.4,0,0.6C17.1,21.5,17,21.5,17,21.5z"/>
<path class="st0" d="M15.6,27c0,0.1,0,0.1,0,0.2c0,0.1-0.1,0.1-0.1,0.2c-0.1-0.1-0.1-0.1-0.1-0.1c0-0.1,0-0.2,0-0.4
	c0-0.1,0.1-0.1,0.1-0.2c0,0.1,0.1,0.1,0.1,0.2C15.7,26.9,15.6,27,15.6,27z"/>
<path class="st0" d="M16.2,27.4c0-0.3,0-0.5,0-0.7c0,0,0.1,0,0.1-0.1c0.1,0.1,0.2,0.1,0.1,0.2C16.3,27,16.6,27.3,16.2,27.4z"/>
<path class="st0" d="M17.1,27.4c-0.4-0.1-0.2-0.4-0.2-0.5c0-0.1,0.1-0.2,0.1-0.2c0,0,0.1,0,0.1,0.1C17.1,26.9,17.1,27.1,17.1,27.4z"
	/>
<path class="st0" d="M17.1,13.4c0,0.2,0,0.5,0,0.7c-0.4,0-0.2-0.2-0.2-0.4C16.9,13.6,16.8,13.3,17.1,13.4z"/>
<path class="st0" d="M16.2,14.2c0-0.3,0-0.5,0-0.8c0,0,0.1,0,0.1-0.1c0.1,0.1,0.1,0.1,0.1,0.2C16.4,13.7,16.5,14,16.2,14.2z"/>
<path class="st0" d="M15.6,13.3c0,0.2,0,0.4,0,0.6c0,0.1-0.1,0.1-0.1,0.1c0,0-0.1,0-0.1-0.1c0-0.2,0-0.4,0-0.6
	C15.4,13.4,15.5,13.4,15.6,13.3z"/>
<path class="st0" d="M14.7,13.3c0.1,0.1,0.1,0.1,0.1,0.2c0,0.1,0,0.3,0,0.4c0,0.1-0.1,0.1-0.1,0.2c0-0.1-0.1-0.1-0.1-0.2
	c0-0.2,0-0.4,0-0.5C14.7,13.4,14.7,13.4,14.7,13.3z"/>
<path class="st0" d="M14.6,27.3c0-0.2,0-0.4,0-0.5c0-0.1,0.1-0.1,0.1-0.2c0.1,0.1,0.1,0.1,0.1,0.2c0,0.1,0,0.3,0,0.4
	c0,0.1-0.1,0.1-0.1,0.2C14.7,27.4,14.7,27.4,14.6,27.3z"/>
<path class="st0" d="M17.9,9.2c-0.1,0.2-0.1,0.3-0.2,0.5c-0.1-0.1-0.1-0.1-0.1-0.2C17.6,9.3,17.6,9.1,17.9,9.2z"/>
<path class="st0" d="M14.9,9.1c0,0.2,0,0.4,0,0.6c-0.1,0-0.2,0-0.2,0c0-0.1,0-0.3,0-0.4C14.7,9.2,14.8,9.2,14.9,9.1z"/>
<path class="st0" d="M17.1,9.2c0,0.2,0,0.3,0,0.5c-0.2,0.1-0.3,0-0.2-0.2C16.9,9.3,16.8,9.1,17.1,9.2z"/>
<path class="st0" d="M16.2,9.7c0-0.2,0-0.3,0-0.6c0.1,0.1,0.2,0.1,0.2,0.2C16.4,9.4,16.5,9.7,16.2,9.7z"/>
<path class="st0" d="M15.7,9.2c-0.1,0.2-0.1,0.4-0.1,0.5c-0.1-0.1-0.1-0.1-0.1-0.2C15.4,9.4,15.3,9.1,15.7,9.2z"/>
</svg>
