<?xml version="1.0" encoding="utf-8"?>
<!-- Generator: Adobe Illustrator 23.1.0, SVG Export Plug-In . SVG Version: 6.00 Build 0)  -->
<!DOCTYPE svg PUBLIC "-//W3C//DTD SVG 1.1//EN" "http://www.w3.org/Graphics/SVG/1.1/DTD/svg11.dtd" [
	<!ENTITY ns_extend "http://ns.adobe.com/Extensibility/1.0/">
	<!ENTITY ns_ai "http://ns.adobe.com/AdobeIllustrator/10.0/">
	<!ENTITY ns_graphs "http://ns.adobe.com/Graphs/1.0/">
	<!ENTITY ns_vars "http://ns.adobe.com/Variables/1.0/">
	<!ENTITY ns_imrep "http://ns.adobe.com/ImageReplacement/1.0/">
	<!ENTITY ns_sfw "http://ns.adobe.com/SaveForWeb/1.0/">
	<!ENTITY ns_custom "http://ns.adobe.com/GenericCustomNamespace/1.0/">
	<!ENTITY ns_adobe_xpath "http://ns.adobe.com/XPath/1.0/">
]>
<svg version="1.1" id="Layer_1" xmlns:x="&ns_extend;" xmlns:i="&ns_ai;" xmlns:graph="&ns_graphs;"
	 xmlns="http://www.w3.org/2000/svg" xmlns:xlink="http://www.w3.org/1999/xlink" x="0px" y="0px" viewBox="0 0 32 32"
	 style="enable-background:new 0 0 32 32;" xml:space="preserve">
<style type="text/css">
	.st0{fill:#F96C1D;}
</style>
<metadata>
	<sfw  xmlns="&ns_sfw;">
		<slices></slices>
		<sliceSourceBounds  bottomLeftOrigin="true" height="20.6" width="29.7" x="1.3" y="6.4"></sliceSourceBounds>
	</sfw>
</metadata>
<path class="st0" d="M31,13.7c-0.1,0.4-0.2,0.8-0.3,1.2c-0.5,1.6-1.5,2.9-2.9,3.9c-1.4,1-3,1.6-4.7,1.7c-0.1,0-0.1,0-0.2,0
	c-0.5-0.1-0.8,0.2-1.2,0.4c-0.9,0.7-1.9,1.4-2.8,2.1c-0.2,0.2-0.4,0.2-0.6,0c-0.2-0.1-0.2-0.3-0.2-0.5c0.1-0.7,0.2-1.5,0.4-2.2
	c0.1-0.4,0.1-0.4-0.3-0.6c-0.2-0.1-0.4-0.2-0.5-0.2c-1,1.3-2.3,2.3-3.9,2.9c0.1,0.5,0.1,0.9,0.2,1.4c0.1,0.4,0.1,0.8,0.2,1.3
	c0,0.2,0,0.4-0.2,0.5c-0.2,0.1-0.4,0.1-0.6,0c-1-0.8-2.1-1.5-3.1-2.3C10.1,23.1,9.9,23,9.7,23c-0.9,0-1.8-0.2-2.6-0.5
	c-1.8-0.6-3.3-1.6-4.4-3.1c-1.9-2.6-1.8-5.9,0.2-8.4c1.4-1.8,3.2-2.8,5.4-3.2c2.2-0.4,4.4-0.1,6.4,0.8c0,0,0.1,0,0.1,0
	c0,0,0.1-0.1,0.1-0.1c1.3-1.6,2.9-2.7,5-3.2C22,4.8,24.2,5,26.4,6c1.9,0.9,3.4,2.2,4.2,4.2c0.2,0.5,0.3,1,0.4,1.6c0,0.1,0,0.1,0,0.2
	C31,12.5,31,13.1,31,13.7z M13,24c0-0.1,0-0.1,0-0.1c-0.1-0.5-0.1-1-0.2-1.4c-0.1-0.5,0.1-0.8,0.6-1c1.4-0.5,2.6-1.4,3.5-2.7
	c1.4-2,1.5-4.2,0.4-6.3c-0.7-1.3-1.8-2.3-3.2-3c-2.3-1.1-4.6-1.2-7-0.3c-1.5,0.5-2.7,1.4-3.6,2.7c-0.9,1.3-1.3,2.7-1.1,4.2
	c0.2,1.9,1.2,3.3,2.7,4.4C6.5,21.5,8.1,22,9.9,22c0.3,0,0.6,0.1,0.8,0.3c0.7,0.5,1.4,1.1,2.2,1.6C12.9,23.9,13,24,13,24z M15.6,9.2
	c1.5,1.1,2.6,2.4,3.2,4.2c0.5,1.8,0.3,3.5-0.5,5.2c0.3,0.1,0.5,0.2,0.8,0.3c0.5,0.2,0.7,0.5,0.6,1c-0.1,0.5-0.1,0.9-0.2,1.4
	c0,0.1,0,0.1,0,0.2c0.1,0,0.1-0.1,0.1-0.1c0.7-0.5,1.5-1.1,2.2-1.6c0.2-0.2,0.5-0.3,0.8-0.3c0.5-0.1,1.1-0.1,1.6-0.2
	c2.1-0.4,3.8-1.4,5-3.2c0.8-1.2,1.2-2.6,1-4.1s-0.9-2.7-2-3.7c-1.5-1.4-3.3-2.1-5.3-2.2c-2.1-0.1-4.1,0.4-5.8,1.8
	C16.4,8.3,16,8.7,15.6,9.2z"/>
<path class="st0" d="M25,15.5c0,0.3-0.2,0.5-0.4,0.5c-0.2,0.1-0.5-0.1-0.5-0.3c-0.1-0.2-0.1-0.4-0.2-0.5c-0.1-0.4-0.2-0.7-0.4-1.1
	c0-0.1-0.1-0.1-0.2-0.1c-0.5,0-1.1,0-1.6,0c-0.1,0-0.2,0-0.2,0.1c-0.2,0.5-0.3,1-0.5,1.5c-0.1,0.3-0.4,0.5-0.7,0.4
	c-0.3-0.1-0.4-0.4-0.3-0.7c0.7-2,1.3-3.9,2-5.9c0.1-0.3,0.3-0.4,0.5-0.4c0.2,0,0.4,0.1,0.5,0.4c0.7,2,1.3,4,2,5.9
	C25,15.4,25,15.5,25,15.5z M22.5,11.2C22.5,11.2,22.5,11.2,22.5,11.2c-0.2,0.6-0.4,1.2-0.7,1.8c0.4,0,0.8,0,1.3,0
	C22.9,12.4,22.7,11.8,22.5,11.2z"/>
<g>
	<path class="st0" d="M10.5,18.8c-0.8,0-1.5-0.1-2-0.4s-1-0.7-1.3-1.3S6.7,16,6.7,15.4c0-1.1,0.4-2,1.1-2.7s1.8-1.1,3.1-1.1
		c0.9,0,1.6,0.2,2.1,0.5s0.8,0.7,0.8,1.3c0,0.4-0.2,0.7-0.5,1s-0.7,0.4-1.2,0.4c-0.4,0-0.7-0.1-1-0.3s-0.4-0.5-0.4-0.9H9.7v-0.4h3.1
		v0.4h-1.6c0.1,0.4,0.4,0.5,1,0.5c0.3,0,0.6-0.1,0.8-0.2s0.3-0.4,0.3-0.6c0-0.3-0.2-0.6-0.6-0.8s-1-0.3-1.8-0.3
		c-0.9,0-1.6,0.3-2.3,0.8S7.6,14,7.6,14.9c0,0.9,0.3,1.7,1,2.4s1.4,1,2.3,1c0.8,0,1.5-0.2,1.9-0.6s0.7-1,0.7-1.8h0.4
		c0,0.9-0.3,1.5-0.8,2.1S11.6,18.8,10.5,18.8z"/>
</g>
</svg>
