<?xml version="1.0" encoding="utf-8"?>
<!-- Generator: Adobe Illustrator 23.1.0, SVG Export Plug-In . SVG Version: 6.00 Build 0)  -->
<!DOCTYPE svg PUBLIC "-//W3C//DTD SVG 1.1//EN" "http://www.w3.org/Graphics/SVG/1.1/DTD/svg11.dtd" [
	<!ENTITY ns_extend "http://ns.adobe.com/Extensibility/1.0/">
	<!ENTITY ns_ai "http://ns.adobe.com/AdobeIllustrator/10.0/">
	<!ENTITY ns_graphs "http://ns.adobe.com/Graphs/1.0/">
	<!ENTITY ns_vars "http://ns.adobe.com/Variables/1.0/">
	<!ENTITY ns_imrep "http://ns.adobe.com/ImageReplacement/1.0/">
	<!ENTITY ns_sfw "http://ns.adobe.com/SaveForWeb/1.0/">
	<!ENTITY ns_custom "http://ns.adobe.com/GenericCustomNamespace/1.0/">
	<!ENTITY ns_adobe_xpath "http://ns.adobe.com/XPath/1.0/">
]>
<svg version="1.1" id="Layer_1" xmlns:x="&ns_extend;" xmlns:i="&ns_ai;" xmlns:graph="&ns_graphs;"
	 xmlns="http://www.w3.org/2000/svg" xmlns:xlink="http://www.w3.org/1999/xlink" x="0px" y="0px" viewBox="0 0 32 32"
	 style="enable-background:new 0 0 32 32;" xml:space="preserve">
<style type="text/css">
	.st0{fill:#F96C1D;}
	.st1{fill:#FFFFFF;}
</style>
<metadata>
	<sfw  xmlns="&ns_sfw;">
		<slices></slices>
		<sliceSourceBounds  bottomLeftOrigin="true" height="29.8" width="21.9" x="5.5" y="1.1"></sliceSourceBounds>
	</sfw>
</metadata>
<path class="st0" d="M27.4,11c0.1,1.1,0.1,2.1-0.1,3.2c-0.2,1.2-0.6,2.3-1.3,3.4c-0.9,1.4-1.9,2.8-2.9,4.1c-0.3,0.5-0.7,0.9-1.1,1.4
	c-0.5,0.8-1.1,1.6-1.6,2.4c-1.3,1.8-2.5,3.6-3.8,5.4c-0.1,0.2-0.2,0.2-0.3,0c-2.5-3.6-5.1-7.2-7.7-10.8c-0.5-0.7-1-1.5-1.5-2.2
	C6.6,17,6.2,16.1,6,15.2c-0.4-1.4-0.5-2.8-0.4-4.3c0.1,0,0.1,0.1,0.1,0.2c0,0.2,0.1,0.2,0.2,0.2c0.7-0.1,1.3,0,2-0.1
	c0.3,0,0.7,0,1,0.2c0,0.6,0,1.2,0.1,1.8c0.4,2.5,1.8,4.4,4,5.7c0.7,0.4,1.5,0.6,2.3,0.8c1.9,0.3,3.6-0.1,5.2-1.1
	c1.1-0.7,2-1.7,2.7-2.8c0.7-1.3,1-2.8,0.9-4.3c0.1-0.2,0.3-0.2,0.5-0.2c0.8,0,1.5,0,2.3,0C27.1,11.2,27.4,11.3,27.4,11z"/>
<path class="st0" d="M27.4,11c0,0.3-0.3,0.3-0.5,0.3c-0.8,0-1.5,0-2.3,0c-0.2,0-0.4,0-0.5,0.2c0-0.1,0-0.2-0.1-0.3
	C23.7,9,22.7,7.3,21,6c-1.2-0.9-2.5-1.3-4-1.5c-1.6-0.1-3.1,0.3-4.5,1c-0.8,0.4-1.5,1.1-2,1.8c-0.5,0.7-1,1.5-1.2,2.3
	c-0.2,0.6-0.3,1.1-0.4,1.7c-0.3-0.1-0.7-0.2-1-0.2c-0.7,0-1.3-0.1-2,0.1c-0.1,0-0.2,0-0.2-0.2c0-0.1,0-0.1-0.1-0.2
	c0.1-0.8,0.2-1.5,0.5-2.3c0.1-0.3,0.2-0.7,0.4-1.1c1.1-2.4,2.8-4.1,5.1-5.3C14.3,1,17,0.8,19.9,1.7c2.5,0.8,4.5,2.4,6,4.6
	c0.8,1.3,1.3,2.7,1.5,4.3C27.4,10.7,27.4,10.8,27.4,11z"/>
<path class="st0" d="M18.3,12.1c0,0.1,0,0.3,0,0.4c0,0.2,0,0.3,0.3,0.3c1,0,2,0,3,0c0.3,0,0.6,0,1,0c-0.3-0.3-0.7-0.5-1-0.7
	c-0.2-0.2-0.4-0.3-0.7-0.3c-0.8,0-1.5,0-2.3,0C18.3,11.8,18.2,11.9,18.3,12.1z"/>
<path class="st0" d="M14.7,12.1c0.1-0.2,0-0.3-0.2-0.3c-0.8,0-1.5,0-2.3,0c-0.3,0-0.5,0.1-0.7,0.3c-0.3,0.2-0.6,0.4-0.9,0.7
	c1.2,0,2.4,0,3.5,0C14.8,12.8,14.8,12.8,14.7,12.1z"/>
<path class="st0" d="M15,13.5c0,0.7,0,1.3,0,2c0,0.6,0,0.6,0.6,0.6c0.2,0,0.2,0,0.2-0.2c0-0.4,0-0.7,0-1.1c0-0.2,0.1-0.3,0.2-0.4
	c0.4-0.3,0.7-0.3,1.1,0c0.2,0.1,0.3,0.2,0.2,0.4c0,0.2,0,0.5,0,0.7c0,0.6,0,0.6,0.6,0.6c0.2,0,0.2,0,0.2-0.2c0-0.8,0-1.6,0-2.4
	c0-0.5,0-1,0-1.5c0-0.1-0.1-0.1-0.2-0.1c-0.9,0-1.9,0-2.8,0c-0.1,0-0.2,0-0.2,0.1C15,12.5,15,13.1,15,13.5z"/>
<path class="st0" d="M14.7,13.9c0-0.3,0-0.6,0-0.9c0-0.1,0-0.1-0.1-0.1c-1,0-2,0-3,0c-0.1,0-0.1,0-0.1,0.1c0,0.3,0,0.6,0,0.9
	c0,0.7,0,1.3,0,2c0,0.1,0,0.2,0.2,0.2c1,0,2,0,3,0c0.1,0,0.1,0,0.1-0.1C14.8,15.3,14.7,14.6,14.7,13.9z"/>
<path class="st0" d="M18.3,13.9c0,0.7,0,1.4,0,2.1c0,0.2,0.1,0.2,0.2,0.2c1,0,1.9,0,2.9,0c0.2,0,0.2,0,0.2-0.2c0-0.7,0-1.4,0-2.2
	c0-0.2,0-0.4,0-0.6c0-0.2-0.1-0.2-0.2-0.2c-0.7,0-1.5,0-2.2,0c-0.3,0-0.7-0.1-0.8,0.1C18.2,13.2,18.3,13.6,18.3,13.9
	C18.3,13.9,18.3,13.9,18.3,13.9z"/>
<path class="st0" d="M17.3,9.6c-0.1-0.1-0.2-0.3-0.3-0.4c-0.3-0.3-0.5-0.7-0.4-1.1c0-0.2,0.1-0.3,0.3-0.3c0.1,0,0.1,0,0.2,0
	c0.3,0,0.3,0,0.3-0.3c0-0.2-0.1-0.3-0.2-0.2c-0.1,0-0.3,0-0.4,0c-0.1,0-0.2,0.1-0.2,0.2c0,0.3,0,0.6,0,0.9c0,0.2,0,0.4-0.2,0.6
	c-0.2,0.3-0.4,0.6-0.7,0.9c-0.5,0.7-1,1.3-1.5,2c1.6,0,3.1,0,4.7,0C18.3,11,17.8,10.3,17.3,9.6z"/>
<path class="st0" d="M17.3,9.6c0.5,0.7,1,1.4,1.6,2.1c-1.6,0-3.1,0-4.7,0c0.5-0.7,1-1.3,1.5-2c0.3-0.1,0.6-0.1,1-0.1
	C16.8,9.6,17,9.6,17.3,9.6z"/>
<path class="st0" d="M21.5,13.8c0,0.7,0,1.4,0,2.2c0,0.2,0,0.2-0.2,0.2c-1,0-1.9,0-2.9,0c-0.1,0-0.2,0-0.2-0.2c0-0.7,0-1.4,0-2.1
	c0.2,0.1,0.4,0,0.6,0c0.1,0.2,0.3,0.1,0.5,0.1c0.3,0.1,0.4-0.1,0.4-0.3c0.1,0.1,0.3,0.2,0.4,0.2c0,0.1,0.1,0.1,0.1,0.1
	c0.1,0,0.3,0,0.4,0c0.2,0,0.2-0.1,0.2-0.2C21.1,13.9,21.3,13.8,21.5,13.8z M19.2,14.9c0.1,0,0.1,0,0.2,0c0.1,0,0.2,0.1,0.2-0.1
	c0-0.2,0-0.3,0-0.5c0,0-0.7,0-0.7,0c0,0,0,0,0,0.1C18.8,14.8,18.9,14.9,19.2,14.9z M20.5,14.9c0.4,0,0.5,0,0.4-0.4
	c0-0.1,0-0.1-0.1-0.1c-0.2,0-0.4,0-0.6,0c-0.1,0-0.1,0-0.1,0.1C20.1,14.8,20.1,14.9,20.5,14.9z"/>
<path class="st0" d="M14.7,13.9c0,0.7,0,1.4,0,2.1c0,0.1-0.1,0.1-0.1,0.1c-1,0-2,0-3,0c-0.2,0-0.2-0.1-0.2-0.2c0-0.7,0-1.3,0-2
	c0.2-0.1,0.4,0.1,0.6-0.1c0.1,0.1,0.7,0.1,0.8,0c0,0,0,0,0-0.1c0.2,0.1,0.3,0,0.5-0.1c0,0.1,0,0.2,0.1,0.2c0.2,0,0.5,0,0.7,0
	c0.1,0,0-0.1,0.1-0.2C14.3,14,14.5,13.9,14.7,13.9z M13.7,14.9c0.1,0,0.2,0,0.3,0c0.1,0,0.1,0,0.1-0.1c0-0.1,0.1-0.3,0-0.4
	c-0.1-0.2-0.4-0.1-0.6-0.1c-0.1,0-0.2-0.1-0.3,0.1C13.2,14.7,13.3,14.9,13.7,14.9C13.7,14.9,13.7,14.9,13.7,14.9z M12.5,14.9
	c0.5,0,0.4,0,0.4-0.4c0-0.1-0.1-0.2-0.2-0.1c-0.2,0-0.5-0.1-0.6,0.1C11.9,14.8,12.1,14.9,12.5,14.9z"/>
<path class="st0" d="M18,13.5c0,0.8,0,1.6,0,2.4c0,0.2-0.1,0.2-0.2,0.2c-0.6,0-0.6,0-0.6-0.6c0-0.2,0-0.5,0-0.7
	c0-0.2-0.1-0.3-0.2-0.4c-0.4-0.3-0.7-0.3-1.1,0c-0.2,0.1-0.2,0.2-0.2,0.4c0,0.4,0,0.7,0,1.1c0,0.2,0,0.2-0.2,0.2
	c-0.6,0-0.6,0-0.6-0.6c0-0.7,0-1.3,0-2C16,13.5,17,13.5,18,13.5z"/>
<path class="st0" d="M18,13.5c-1-0.1-2.1,0-3.1,0c0-0.5,0-1,0-1.5c0-0.1,0.1-0.1,0.2-0.1c0.9,0,1.9,0,2.8,0c0.1,0,0.2,0,0.2,0.1
	C18,12.5,18,13.1,18,13.5z M17,12.7c0-0.3-0.2-0.5-0.5-0.6c-0.3,0-0.5,0.2-0.6,0.5c0,0.3,0.2,0.5,0.5,0.6C16.8,13.2,17,13,17,12.7z"
	/>
<path class="st0" d="M14.7,12.1c0,0.7,0,0.7-0.6,0.7c-1.2,0-2.3,0-3.5,0c0.3-0.2,0.6-0.4,0.9-0.7c0.2,0.1,0.5,0,0.7,0
	C13,12.1,13.9,12.1,14.7,12.1z"/>
<path class="st0" d="M21.5,12.1c0.3,0.2,0.6,0.4,1,0.7c-0.4,0-0.7,0-1,0c-1,0-2,0-3,0c-0.2,0-0.3,0-0.3-0.3c0-0.1,0-0.3,0-0.4
	c0.9,0,1.7,0,2.6,0C21.1,12.1,21.3,12.2,21.5,12.1z"/>
<path class="st0" d="M14.7,13.9c-0.2,0-0.4,0-0.6-0.2c0-0.4,0-0.4-0.5-0.4c-0.4,0-0.3,0.2-0.3,0.4c-0.1,0.1-0.3,0.1-0.5,0.1
	c-0.1-0.1,0.1-0.4-0.1-0.4c-0.2-0.1-0.4-0.1-0.7,0c-0.1,0,0,0.2-0.1,0.3c0,0,0,0.1,0,0.1c0,0,0,0,0,0.1c-0.2,0.2-0.4,0-0.6,0.1
	c0-0.3,0-0.6,0-0.9c0-0.1,0-0.1,0.1-0.1c1,0,2,0,3,0c0.1,0,0.1,0,0.1,0.1C14.7,13.4,14.7,13.7,14.7,13.9z"/>
<path class="st0" d="M20.1,13.8c-0.2,0-0.3-0.1-0.4-0.2c0-0.2-0.1-0.3-0.3-0.2c-0.5,0-0.5,0-0.6,0.5c-0.2,0.1-0.4,0.1-0.6,0
	c0,0,0,0,0-0.1c0-0.3-0.1-0.6,0-0.8c0.1-0.2,0.5-0.1,0.8-0.1c0.7,0,1.5,0,2.2,0c0.2,0,0.2,0,0.2,0.2c0,0.2,0,0.4,0,0.6
	c-0.2,0-0.4,0.1-0.6-0.1c0-0.2,0-0.4-0.3-0.4C20.2,13.4,20.2,13.4,20.1,13.8z"/>
<path class="st0" d="M17.3,9.6c-0.2,0-0.5,0-0.7,0.1c-0.3,0-0.7,0-1,0.1c0.2-0.3,0.4-0.6,0.7-0.9c0.1-0.2,0.2-0.3,0.2-0.6
	c0-0.3,0-0.6,0-0.9c0-0.1,0-0.2,0.2-0.2c0.1,0,0.3,0,0.4,0c0.2,0,0.2,0.1,0.2,0.2c0,0.3-0.1,0.4-0.3,0.3c-0.1,0-0.1,0-0.2,0
	c-0.2,0-0.3,0.1-0.3,0.3c-0.1,0.5,0.2,0.8,0.4,1.1C17.1,9.3,17.2,9.4,17.3,9.6z"/>
<path class="st0" d="M14.7,12.1c-0.8,0-1.7,0-2.5,0c-0.2,0-0.5,0.1-0.7,0c0.2-0.2,0.4-0.3,0.7-0.3c0.8,0,1.5,0,2.3,0
	C14.7,11.8,14.8,11.9,14.7,12.1z"/>
<path class="st0" d="M21.5,12.1c-0.2,0.1-0.5,0-0.7,0c-0.9,0-1.7,0-2.6,0c-0.1-0.2,0-0.3,0.2-0.3c0.8,0,1.5,0,2.3,0
	C21.1,11.8,21.3,11.9,21.5,12.1z"/>
<path class="st1" d="M19.2,14.9c-0.4,0-0.5-0.1-0.4-0.5c0,0,0-0.1,0-0.1c0,0,0.7,0,0.7,0c0.1,0.2,0,0.3,0,0.5c0,0.1-0.1,0.1-0.2,0.1
	C19.4,14.9,19.3,14.9,19.2,14.9z"/>
<path class="st1" d="M20.5,14.9c-0.4,0-0.5-0.1-0.4-0.5c0-0.1,0-0.1,0.1-0.1c0.2,0,0.4,0,0.6,0c0.1,0,0.1,0.1,0.1,0.1
	C21,14.9,21,14.9,20.5,14.9z"/>
<path class="st1" d="M18.9,13.9c0.1-0.5,0.1-0.5,0.6-0.5c0.2,0,0.3,0.1,0.3,0.2c0,0.3-0.1,0.4-0.4,0.3C19.2,13.9,19,14,18.9,13.9z"
	/>
<path class="st1" d="M20.1,13.8c0-0.5,0-0.4,0.5-0.5c0.3,0,0.3,0.2,0.3,0.4c0,0.2,0,0.2-0.2,0.2c-0.1,0-0.3,0-0.4,0
	C20.2,14,20.1,13.9,20.1,13.8z"/>
<path class="st1" d="M13.7,14.9C13.7,14.9,13.7,14.9,13.7,14.9c-0.4,0-0.5-0.2-0.4-0.5c0.1-0.2,0.2-0.1,0.3-0.1
	c0.2,0,0.4-0.1,0.6,0.1c0.1,0.1,0,0.3,0,0.4c0,0.1-0.1,0.1-0.1,0.1C13.9,14.9,13.8,14.9,13.7,14.9z"/>
<path class="st1" d="M12.5,14.9c-0.4,0-0.5-0.1-0.4-0.5c0.1-0.2,0.4-0.1,0.6-0.1c0.1,0,0.2,0,0.2,0.1C12.9,14.9,12.9,14.9,12.5,14.9
	z"/>
<path class="st1" d="M12.1,13.9C12.1,13.9,12,13.8,12.1,13.9c0-0.1,0-0.1,0-0.1c0.1-0.1-0.1-0.3,0.1-0.3c0.2,0,0.5-0.1,0.7,0
	c0.1,0,0,0.3,0.1,0.4c0,0,0,0,0,0.1C12.7,14,12.2,14,12.1,13.9z"/>
<path class="st1" d="M13.3,13.8c0-0.2,0-0.5,0.3-0.4c0.4,0,0.4,0,0.5,0.4c0,0.1,0,0.2-0.1,0.2c-0.2,0-0.5,0-0.7,0
	C13.3,13.9,13.4,13.8,13.3,13.8z"/>
<path class="st0" d="M17,12.7c0,0.3-0.3,0.5-0.6,0.5c-0.3,0-0.5-0.3-0.5-0.6c0-0.3,0.3-0.5,0.6-0.5C16.8,12.2,17,12.4,17,12.7z"/>
<path class="st0" d="M12.1,13.7C12.1,13.7,12,13.8,12.1,13.7C12,13.8,12,13.7,12.1,13.7z"/>
</svg>
