<?xml version="1.0" encoding="utf-8"?>
<!-- Generator: Adobe Illustrator 23.1.0, SVG Export Plug-In . SVG Version: 6.00 Build 0)  -->
<!DOCTYPE svg PUBLIC "-//W3C//DTD SVG 1.1//EN" "http://www.w3.org/Graphics/SVG/1.1/DTD/svg11.dtd" [
	<!ENTITY ns_extend "http://ns.adobe.com/Extensibility/1.0/">
	<!ENTITY ns_ai "http://ns.adobe.com/AdobeIllustrator/10.0/">
	<!ENTITY ns_graphs "http://ns.adobe.com/Graphs/1.0/">
	<!ENTITY ns_vars "http://ns.adobe.com/Variables/1.0/">
	<!ENTITY ns_imrep "http://ns.adobe.com/ImageReplacement/1.0/">
	<!ENTITY ns_sfw "http://ns.adobe.com/SaveForWeb/1.0/">
	<!ENTITY ns_custom "http://ns.adobe.com/GenericCustomNamespace/1.0/">
	<!ENTITY ns_adobe_xpath "http://ns.adobe.com/XPath/1.0/">
]>
<svg version="1.1" id="Layer_1" xmlns:x="&ns_extend;" xmlns:i="&ns_ai;" xmlns:graph="&ns_graphs;"
	 xmlns="http://www.w3.org/2000/svg" xmlns:xlink="http://www.w3.org/1999/xlink" x="0px" y="0px" viewBox="0 0 32 32"
	 style="enable-background:new 0 0 32 32;" xml:space="preserve">
<style type="text/css">
	.st0{fill:#F96C1D;}
</style>
<metadata>
	<sfw  xmlns="&ns_sfw;">
		<slices></slices>
		<sliceSourceBounds  bottomLeftOrigin="true" height="29.7" width="26.8" x="2.6" y="1.1"></sliceSourceBounds>
	</sfw>
</metadata>
<path class="st0" d="M15.6,1.1c4.6,0,9.2,0,13.8,0c0,9.9,0,19.8,0,29.7c-8.4,0-16.7,0-25,0c0-0.3,0-0.5,0-0.8c0.4,0,0.7,0,1.1-0.1
	c0-1.3,0-2.5,0-3.8c-1.9,0-2.7-0.6-2.9-2.2c-0.2-1.2,0.7-2.3,2.2-2.8c0.4-1.5,1.1-2.2,2.2-2c0.7,0.2,1.2,0.6,1.3,1.3
	c0.1,0.6,0,1.3,0,2c1.3,0.5,1.9,1.2,1.6,2.2c-0.3,1.1-1.2,1.5-3.1,1.3c0,1.3,0,2.5,0,3.9c2.9,0,5.8,0,8.8,0
	C15.6,20.4,15.6,10.8,15.6,1.1z M16.3,30.1c1,0,1.8,0,2.6,0c0.1,0,0.3-0.3,0.4-0.4c0-0.9,0-1.7,0-2.6c0-0.3-0.1-0.5-0.5-0.5
	c-0.7,0-1.3,0-2,0c-0.4,0-0.5,0.2-0.5,0.5C16.3,28.1,16.3,29,16.3,30.1z M25.8,16.3c1,0,1.9,0,2.9,0c0-1.1,0-2.2,0-3.3
	c-1,0-1.9,0-2.9,0C25.8,14.1,25.8,15.2,25.8,16.3z M25.8,17.5c0,1.1,0,2.2,0,3.4c1,0,1.9,0,2.9,0c0-1.1,0-2.2,0-3.4
	C27.7,17.5,26.8,17.5,25.8,17.5z M28.7,25.4c0-1,0-2.1,0-3.1c0-0.1-0.2-0.3-0.3-0.3c-0.7,0-1.5,0-2.2,0c-0.1,0-0.3,0.2-0.3,0.3
	c0,1,0,2,0,3C26.8,25.4,27.7,25.4,28.7,25.4z M28.7,3.9c-1,0-1.9,0-2.9,0c0,1,0,2,0,3c0,0.1,0.2,0.3,0.3,0.3c0.7,0,1.5,0,2.2,0
	c0.1,0,0.3-0.2,0.3-0.3C28.7,5.9,28.7,4.9,28.7,3.9z M19.3,22.1c-0.9,0-1.7,0-2.6,0c-0.1,0-0.3,0.2-0.3,0.3c0,1,0,2,0,3.1
	c1,0,1.9,0,2.9,0C19.3,24.3,19.3,23.3,19.3,22.1z M21.1,26.7c0,1.1,0,2.2,0,3.3c1,0,1.9,0,2.8,0c0-1.1,0-2.2,0-3.3
	C22.9,26.7,22.1,26.7,21.1,26.7z M21.1,8.4c0,1.1,0,2.2,0,3.3c1,0,1.9,0,2.8,0c0-1.1,0-2.2,0-3.3C23,8.4,22.1,8.4,21.1,8.4z
	 M21.1,16.3c1,0,1.9,0,2.8,0c0-1.1,0-2.2,0-3.3c-1,0-1.9,0-2.8,0C21.1,14.1,21.1,15.2,21.1,16.3z M16.4,17.5c0,1.1,0,2.2,0,3.3
	c1,0,1.9,0,2.9,0c0-1.1,0-2.2,0-3.3C18.3,17.5,17.4,17.5,16.4,17.5z M16.4,11.7c1,0,1.9,0,2.9,0c0-1.1,0-2.2,0-3.3c-1,0-1.9,0-2.9,0
	C16.4,9.5,16.4,10.6,16.4,11.7z M21.1,17.5c0,1.1,0,2.2,0,3.3c1,0,1.9,0,2.8,0c0-1.1,0-2.2,0-3.3C23,17.5,22.1,17.5,21.1,17.5z
	 M16.4,3.9c0,1.1,0,2.2,0,3.3c1,0,1.9,0,2.8,0c0-1.1,0-2.2,0-3.3C18.3,3.9,17.4,3.9,16.4,3.9z M25.8,30c0.8,0,1.5,0,2.2,0
	c0.1,0,0.3,0,0.3,0c0.1-0.1,0.3-0.2,0.3-0.4c0-0.6,0-1.2,0-1.8c-0.1-0.7-0.7-1.2-1.5-1.2c-0.8,0-1.3,0.5-1.3,1.3
	C25.8,28.6,25.8,29.3,25.8,30z"/>
</svg>
