<?xml version="1.0" encoding="utf-8"?>
<!-- Generator: Adobe Illustrator 23.1.0, SVG Export Plug-In . SVG Version: 6.00 Build 0)  -->
<!DOCTYPE svg PUBLIC "-//W3C//DTD SVG 1.1//EN" "http://www.w3.org/Graphics/SVG/1.1/DTD/svg11.dtd" [
	<!ENTITY ns_extend "http://ns.adobe.com/Extensibility/1.0/">
	<!ENTITY ns_ai "http://ns.adobe.com/AdobeIllustrator/10.0/">
	<!ENTITY ns_graphs "http://ns.adobe.com/Graphs/1.0/">
	<!ENTITY ns_vars "http://ns.adobe.com/Variables/1.0/">
	<!ENTITY ns_imrep "http://ns.adobe.com/ImageReplacement/1.0/">
	<!ENTITY ns_sfw "http://ns.adobe.com/SaveForWeb/1.0/">
	<!ENTITY ns_custom "http://ns.adobe.com/GenericCustomNamespace/1.0/">
	<!ENTITY ns_adobe_xpath "http://ns.adobe.com/XPath/1.0/">
]>
<svg version="1.1" id="Layer_1" xmlns:x="&ns_extend;" xmlns:i="&ns_ai;" xmlns:graph="&ns_graphs;"
	 xmlns="http://www.w3.org/2000/svg" xmlns:xlink="http://www.w3.org/1999/xlink" x="0px" y="0px" viewBox="0 0 32 32"
	 style="enable-background:new 0 0 32 32;" xml:space="preserve">
<style type="text/css">
	.st0{fill:#F96C1D;}
</style>
<metadata>
	<sfw  xmlns="&ns_sfw;">
		<slices></slices>
		<sliceSourceBounds  bottomLeftOrigin="true" height="28.6" width="28.6" x="1.4" y="1.4"></sliceSourceBounds>
	</sfw>
</metadata>
<path class="st0" d="M16.3,6.9c0.4,0,0.8,0.1,1.1,0c0.3-0.1,0.2-0.6,0.4-0.9c1.1-2.6,3.8-4.3,6.5-3.9c3,0.4,5.3,2.6,5.7,5.4
	c0.4,3.2-1.4,6.1-4.5,7c-0.2,0.1-0.3,0.1-0.3,0.4c0,0.5,0,1.1,0,1.6c0,0.3-0.1,0.5-0.3,0.7c-4.4,4.4-8.7,8.7-13.1,13.1
	c-0.4,0.4-0.8,0.4-1.2,0c-2.9-2.9-5.9-5.9-8.8-8.8c-0.4-0.4-0.4-0.8,0-1.2c4.4-4.4,8.7-8.7,13.1-13.1C15,7,15.2,6.9,15.5,6.9
	C15.8,7,16,6.9,16.3,6.9C16.3,6.9,16.3,6.9,16.3,6.9z M3.1,20.9C3.2,21,3.3,21,3.4,21.1c2.5,2.5,5,5,7.5,7.5c0.2,0.2,0.3,0.2,0.5,0
	c3.8-3.8,7.6-7.6,11.4-11.4c0.7-0.7,1.1-1.3,0.9-2.2c0-0.2,0-0.3-0.3-0.3c-0.8,0-1.5-0.2-2.2-0.5c-0.2-0.1-0.3-0.1-0.5,0
	c-0.8,0.4-1.6,0.4-2.3-0.2c-0.7-0.5-1-1.3-0.8-2.1c0.2-1.1,1.4-1.8,2.5-1.6c1.2,0.2,1.9,1.3,1.7,2.5c0,0.2,0,0.3,0.2,0.3
	c0.5,0.2,1,0.2,1.5,0.3c0.2,0,0.3,0,0.3-0.3c0-1.5,0-2.9,0-4.4c0-0.2-0.1-0.3-0.3-0.3c-2.4,0-4.9,0-7.3-0.1c-0.2,0-0.4,0.1-0.5,0.2
	c-4,4-8.1,8-12.1,12.1C3.3,20.7,3.2,20.8,3.1,20.9z M28.6,8.4c0-2.4-1.7-4.4-4.1-4.9c-2.3-0.4-4.6,0.9-5.5,3.1
	c-0.1,0.3-0.1,0.3,0.2,0.3c1.7,0,3.3,0,5,0C24.7,7,25,7.2,25,7.8c0,1.7,0,3.3,0,5c0,0.3,0,0.4,0.3,0.2C27.3,12.3,28.5,10.4,28.6,8.4
	z M20.3,12.4c0-0.4-0.3-0.7-0.7-0.7c-0.4,0-0.7,0.3-0.7,0.7c0,0.4,0.3,0.7,0.7,0.7C20,13.1,20.3,12.8,20.3,12.4z"/>
<path class="st0" d="M13.3,14.5c0-0.4-0.2-0.6-0.4-0.7c-0.3-0.1-0.6,0-0.8,0.2c-2.1,2.1-4.2,4.2-6.4,6.4c-0.3,0.3-0.3,0.8,0,1.1
	c0.3,0.3,0.7,0.3,1-0.1c2.1-2.1,4.3-4.2,6.4-6.4C13.2,14.8,13.3,14.6,13.3,14.5z"/>
<path class="st0" d="M8.2,23.6c0.1,0,0.3-0.1,0.5-0.3c1.1-1.1,2.3-2.3,3.4-3.4c0.1-0.1,0.2-0.2,0.2-0.4c0.1-0.3-0.1-0.6-0.3-0.8
	c-0.3-0.2-0.6-0.1-0.9,0.2c-1,1-2,2-3,3c-0.2,0.2-0.4,0.4-0.5,0.5c-0.2,0.2-0.2,0.5-0.1,0.8C7.6,23.5,7.9,23.6,8.2,23.6z"/>
<path class="st0" d="M13.3,24.5c0-0.3-0.1-0.6-0.4-0.7c-0.3-0.1-0.6-0.1-0.8,0.1c-0.5,0.5-1,1-1.5,1.5c-0.3,0.3-0.3,0.7,0,1
	c0.3,0.3,0.7,0.3,1,0c0.5-0.5,1-0.9,1.4-1.4C13.2,24.8,13.3,24.6,13.3,24.5z"/>
<path class="st0" d="M20.3,12.4c0,0.4-0.3,0.7-0.7,0.8c-0.4,0-0.7-0.3-0.7-0.7c0-0.4,0.3-0.7,0.7-0.7C20,11.7,20.3,12,20.3,12.4z"/>
<path class="st0" d="M13.3,14.5c0,0.1-0.1,0.3-0.2,0.4c-2.1,2.1-4.2,4.2-6.4,6.4c-0.3,0.3-0.7,0.3-1,0.1c-0.3-0.3-0.3-0.7,0-1.1
	c2.1-2.1,4.2-4.2,6.4-6.4c0.2-0.2,0.5-0.3,0.8-0.2C13.1,13.9,13.3,14.1,13.3,14.5z"/>
<path class="st0" d="M8.2,23.6c-0.4,0-0.6-0.1-0.7-0.4c-0.1-0.3-0.1-0.5,0.1-0.8c0.2-0.2,0.4-0.4,0.5-0.5c1-1,2-2,3-3
	c0.3-0.3,0.6-0.3,0.9-0.2c0.3,0.1,0.4,0.4,0.3,0.8c0,0.2-0.1,0.3-0.2,0.4c-1.1,1.1-2.3,2.3-3.4,3.4C8.5,23.5,8.4,23.6,8.2,23.6z"/>
<path class="st0" d="M13.3,24.5c0,0.2-0.1,0.3-0.2,0.5c-0.5,0.5-0.9,1-1.4,1.4c-0.3,0.3-0.7,0.3-1,0c-0.3-0.3-0.3-0.7,0-1
	c0.5-0.5,1-1,1.5-1.5c0.2-0.2,0.5-0.3,0.8-0.1C13.1,23.9,13.3,24.1,13.3,24.5z"/>
</svg>
