<?xml version="1.0" encoding="utf-8"?>
<!-- Generator: Adobe Illustrator 24.0.1, SVG Export Plug-In . SVG Version: 6.00 Build 0)  -->
<svg version="1.1" id="Layer_1" xmlns="http://www.w3.org/2000/svg" xmlns:xlink="http://www.w3.org/1999/xlink" x="0px" y="0px"
	 viewBox="0 0 32 32" style="enable-background:new 0 0 32 32;" xml:space="preserve">
<style type="text/css">
	.st0{fill:#FFFFFF;}
	.st1{fill:#FF6B06;}
	.st2{fill:#FC6A06;}
	.st3{fill:#FF6903;}
</style>
<g>
	<path class="st0" d="M7.3,30.8c0.1-0.2,0.2-0.3,0.3-0.4c1.5-1.9,3-3.7,4.4-5.6c0.1-0.1,0.3-0.2,0.5-0.2c1.9,0,3.8,0,5.7,0
		c3.3,0,6.6,0,9.8,0c1.7,0,3-1.6,3-3.7c0-5.1,0-10.2,0-15.3c0-1.2-0.4-2.2-1.1-2.9c-0.7-0.7-1.4-0.8-2.3-0.8c-3.7,0-7.3,0-11,0
		c-3.9,0-7.8,0-11.7,0c-2.1,0-3.2,2-3.2,4c0.1,5,0,10,0,15c0,1.8,1,3.3,2.3,3.6c0.6,0.1,1.3,0.1,2,0.1c0.4,0,0.7,0,1.1,0
		C7.3,26.6,7.3,28.6,7.3,30.8z"/>
	<path class="st1" d="M7.3,30.8c0-2.1,0-4.1,0-6.2c-0.4,0-0.8,0-1.1,0c-0.7,0-1.3,0-2-0.1c-1.4-0.3-2.3-1.8-2.3-3.6c0-5,0-10,0-15
		c0-2,1.1-4,3.2-4c3.9,0,7.8,0,11.7,0c3.7,0,7.3,0,11,0c0.8,0,1.6,0.1,2.3,0.8c0.7,0.8,1.1,1.7,1.1,2.9c0,5.1,0,10.2,0,15.3
		c0,2.1-1.3,3.7-3,3.7c-3.3,0-6.6,0-9.8,0c-1.9,0-3.8,0-5.7,0c-0.2,0-0.4,0.1-0.5,0.2c-1.5,1.9-3,3.7-4.4,5.6
		C7.6,30.5,7.5,30.6,7.3,30.8z M9.2,25.7c0.1-0.1,0.2-0.2,0.3-0.3c0.7-0.9,1.5-1.9,2.2-2.9c0.2-0.2,0.3-0.3,0.5-0.3c5,0,10,0,15,0
		c1,0,1.6-0.8,1.6-2c0-4.6,0-9.2,0-13.8c0-1.4-0.6-2.1-1.7-2.1c-6.2,0-12.4,0-18.6,0c-1,0-2.1,0-3.1,0c-0.9,0-1.4,0.8-1.4,1.9
		c0,4.7,0,9.4,0,14c0,1.2,0.6,2,1.6,2c1.1,0,2.1,0,3.2,0c0.1,0,0.2,0,0.3,0c0,0.6,0,1.1,0,1.7C9.2,24.5,9.2,25.1,9.2,25.7z"/>
	<path d="M16.8,15.2C16.8,15.2,16.9,15.2,16.8,15.2c0-0.2,0-0.2,0-0.3c0-0.7,0.2-1.2,0.6-1.6c0.3-0.3,0.5-0.5,0.8-0.8
		c0.3-0.3,0.6-0.6,0.8-1c1.1-1.6,0.7-4.1-0.8-5C17.7,6.1,17,6,16.2,6c-1.2,0-2.3,0.4-3.3,1.2c0.3,0.7,0.5,1.3,0.8,2
		c0.5-0.2,1-0.5,1.5-0.7c0.6-0.2,1.2-0.3,1.7-0.1c0.5,0.2,0.7,0.7,0.6,1.3c-0.1,0.5-0.2,0.8-0.5,1.1c-0.4,0.4-0.9,0.9-1.3,1.3
		c-0.7,0.8-0.9,1.8-0.8,3C15.6,15.2,16.2,15.2,16.8,15.2z M15.9,20c0.8,0,1.3-0.6,1.3-1.6c0-1-0.5-1.6-1.3-1.6
		c-0.8,0-1.3,0.6-1.3,1.6C14.7,19.4,15.1,20,15.9,20z"/>
	<path class="st2" d="M16.8,15.2c-0.6,0-1.3,0-1.9,0c-0.1-1.2,0.1-2.2,0.8-3c0.4-0.5,0.9-0.9,1.3-1.3c0.3-0.3,0.5-0.7,0.5-1.1
		c0.1-0.6-0.1-1.1-0.6-1.3c-0.6-0.2-1.2-0.2-1.7,0.1c-0.5,0.2-1,0.4-1.5,0.7c-0.3-0.6-0.5-1.3-0.8-2C14,6.4,15.1,6,16.2,6
		c0.7,0,1.4,0.1,2.1,0.5c1.5,1,1.9,3.4,0.8,5c-0.2,0.4-0.5,0.7-0.8,1c-0.3,0.3-0.5,0.5-0.8,0.8c-0.4,0.4-0.6,0.9-0.6,1.6
		c0,0.1,0,0.2,0,0.2C16.9,15.2,16.8,15.2,16.8,15.2z"/>
	<path class="st3" d="M15.9,20c-0.8,0-1.3-0.6-1.3-1.6c0-1,0.4-1.6,1.3-1.6s1.3,0.6,1.3,1.6C17.2,19.4,16.8,20,15.9,20z"/>
</g>
</svg>
